<svg width="815" height="430" viewBox="0 0 815 430" fill="none" xmlns="http://www.w3.org/2000/svg">
<path d="M426.804 424.261C550.15 424.261 650.142 329.287 650.142 212.13C650.142 94.9739 550.15 0 426.804 0C303.458 0 203.467 94.9739 203.467 212.13C203.467 329.287 303.458 424.261 426.804 424.261Z" fill="#1BD47B"/>
<g opacity="0.2">
<path d="M359.775 28.2949C371.999 43.6918 387.231 56.4376 404.542 65.7551C408.629 68.1699 412.344 62.5973 410.176 59.5634C400.641 45.4461 391.973 31.7003 381.137 18.388C378.165 14.7349 374.945 10.7102 372.283 6.68555C364.383 8.55083 356.59 10.8452 348.94 13.5584C352.221 18.6357 356.308 23.4653 359.775 28.2949Z" fill="#0F7544"/>
<path d="M345.427 65.4477C374.134 101.667 410.147 131.435 451.121 152.814C493.229 175.106 539.136 189.323 586.473 194.732C607.396 197.373 628.527 197.974 649.567 196.528C648.997 189.194 648.026 181.898 646.657 174.671C629.117 176.724 611.404 176.828 593.841 174.98C554.366 170.995 515.78 160.732 479.541 144.579C444.679 129.521 412.592 108.717 384.621 83.0323C367.098 66.6241 344.065 43.8384 333.724 19.3809C329.204 21.3622 324.808 23.4055 320.412 25.5726C327.114 39.8234 335.513 53.2122 345.427 65.4477Z" fill="white"/>
<path d="M509.886 56.966C529.204 68.8543 570.132 83.8384 596.571 74.303C591.565 68.6887 586.253 63.3556 580.658 58.3282C579.102 58.609 577.53 58.7951 575.952 58.8855C559.379 59.1713 542.981 55.4542 528.152 48.0499C511 40.3102 484.252 23.9639 471.311 4.33594C466.729 3.40718 462.085 2.6641 457.38 2.04492C465.367 25.0164 491.063 45.4493 509.886 56.966Z" fill="white"/>
<path d="M307.897 134.92C345.048 175.971 392.848 205.258 443.497 229.344C489.583 252.375 539.728 266.174 591.109 269.962C608.066 271.104 625.088 270.856 642.005 269.219C646.632 253.296 649.314 236.872 649.993 220.304C627.283 222.046 604.453 221.382 581.883 218.323C539.2 211.727 497.826 198.437 459.286 178.943C418.854 159.315 379.598 135.601 347.834 104.332C332.406 88.8406 318.609 71.8066 306.659 53.4978C303.563 48.792 300.467 43.9624 297.928 39.1328C285.111 47.7694 273.221 57.7085 262.449 68.7915C274.356 92.8953 289.662 115.165 307.897 134.92Z" fill="#0F7544"/>
<path d="M277.852 283.524C251.81 265.381 226.989 245.545 203.551 224.145C203.551 229.779 204.417 235.414 205.284 240.986C256.304 291.697 322.371 331.572 386.146 361.788C426.626 381.086 468.807 396.59 512.149 408.102C516.359 406.43 520.508 404.697 524.532 402.777C479.529 390.574 435.833 373.983 394.071 353.243C353.502 333.199 314.633 309.882 277.852 283.524Z" fill="#0F7544"/>
<path d="M495.636 87.7379C522.931 104.907 553.96 115.25 586.097 117.892C599.287 118.692 612.524 117.944 625.539 115.663C622.381 109.842 618.976 104.084 615.199 98.5115C604.38 100.657 593.319 101.324 582.32 100.493C555.268 98.0476 529.081 89.699 505.604 76.0354C472.045 57.4601 438.671 31.9499 418.053 0.248047C412.79 0.248047 407.589 0.743378 402.387 1.30064C422.635 37.7702 464.181 68.9768 495.636 87.7379Z" fill="white"/>
<path d="M572.35 373.053C552.401 371.518 532.556 368.851 512.909 365.066C432.056 350.24 356.307 315.082 292.792 262.901C262.39 238.877 228.149 212.253 206.107 179.932C205.302 184.885 204.621 189.9 204.187 194.916C221.648 219.249 248.83 239.806 270.315 258.196C304.906 288.442 343.061 314.351 383.934 335.345C437.241 361.72 494.547 379.086 553.527 386.737L555.261 385.684C561.329 381.66 566.901 377.449 572.35 373.053Z" fill="white"/>
<path d="M401.984 310.765C454.295 335.414 510.138 351.73 567.49 359.123C573.682 359.866 579.874 360.423 586.066 360.919C605.911 341.883 621.835 319.144 632.937 293.986C611.459 294.875 589.943 293.777 568.667 290.704C519.954 283.27 472.61 268.664 428.175 247.362C381.895 226.491 339.628 197.676 303.287 162.225C284.407 143.12 267.787 121.908 253.753 99.0066C251.276 95.1058 248.985 90.9573 246.694 86.623C230.265 107.922 218.131 132.21 210.968 158.138C222.017 174.543 234.446 189.975 248.118 204.267C292.331 249.034 344.514 285.152 401.984 310.765Z" fill="white"/>
<path d="M561.312 130.585C543.665 125.012 525.709 124.393 508.434 116.282C491.159 108.17 474.937 95.0439 455.866 90.3382C446.393 87.9853 442.492 100.121 448.498 105.508C463.915 119.254 488.497 128.603 507.815 136.962C523.48 143.711 544.966 148.789 560.817 141.235C564.779 139.315 566.761 132.38 561.312 130.585Z" fill="#0F7544"/>
<path d="M328.76 365.813C324.753 364.375 320.601 363.379 316.377 362.841C311.919 362.284 309.38 368.6 313.962 370.272C317.258 371.429 320.398 372.989 323.312 374.915C326.436 376.719 329.789 378.093 333.28 379.002C333.944 379.292 334.682 379.363 335.389 379.204C336.095 379.046 336.733 378.667 337.209 378.121C337.685 377.576 337.975 376.893 338.037 376.172C338.099 375.451 337.929 374.729 337.553 374.11C335.699 370.389 332.583 367.449 328.76 365.813Z" fill="white"/>
<path d="M451.282 400.61C428.124 392.066 405.339 376.896 380.757 372.871C375.247 371.942 369.922 378.568 373.946 383.088C391.221 402.654 421.375 412.127 445.833 420.858L452.025 422.963C466.31 421.4 480.424 418.54 494.191 414.418C479.702 410.27 465.275 405.75 451.282 400.61Z" fill="#0F7544"/>
<path d="M288.89 340.858C296.134 342.592 298.425 333.738 294.339 329.651C280.221 315.596 259.727 306.927 243.566 294.667C232.916 286.556 222.39 278.321 212.174 269.9C215.175 280.055 218.984 289.952 223.567 299.497C242.39 318.258 264.742 335.038 288.89 340.858Z" fill="white"/>
</g>
<path d="M327.886 387.539C325.714 386.983 323.63 386.129 321.694 385C315.891 382.354 310.265 379.335 304.852 375.96C286.906 364.885 270.868 350.981 257.361 334.785C249.987 325.821 243.379 316.252 237.61 306.179C233.013 297.909 229.06 289.298 225.783 280.421C224.297 276.706 223.307 273.177 222.378 270.081C221.532 267.484 220.85 264.837 220.335 262.156C219.666 259.899 219.271 257.571 219.158 255.221C219.777 255.221 221.944 264.818 227.889 279.616C231.454 288.241 235.591 296.619 240.272 304.693C245.955 314.625 252.392 324.106 259.528 333.051C272.862 348.987 288.443 362.899 305.781 374.351C319.093 382.586 328.133 387.044 327.886 387.539Z" fill="white"/>
<path d="M637.964 244.079C637.964 245.193 632.206 246.37 621.494 247.422L612.578 248.289C609.358 248.289 605.767 248.289 601.99 248.289C593.331 248.45 584.669 248.119 576.047 247.299L560.939 245.874C555.738 245.255 550.351 244.141 544.778 243.212C532.861 241.147 521.06 238.46 509.423 235.163C455.855 219.946 406.315 193.072 364.35 156.465C355.252 148.498 346.572 140.066 338.344 131.203C334.505 126.992 330.605 123.153 327.323 118.819L317.85 106.931C312.466 100.156 307.464 93.0861 302.866 85.7552C300.822 82.5354 298.841 79.5634 297.169 76.7771L293.021 68.8516C288.067 59.3163 285.9 53.8056 286.829 53.2483C287.758 52.6911 291.844 57.0872 298.284 65.6319L303.547 72.6286C305.528 75.1673 307.819 77.7678 310.172 80.6779C315.001 86.3125 320.079 93.0615 326.642 99.8105L336.549 110.646C339.954 114.361 343.979 117.89 347.88 121.729C355.496 129.593 364.598 137.023 373.885 145.01C415.276 178.917 462.716 204.675 513.695 220.922C525.522 224.327 536.667 227.918 547.441 230.024C552.766 231.2 557.905 232.624 562.92 233.491L577.409 235.906C586.573 237.763 594.994 238.259 602.176 239.249C605.891 239.621 609.358 240.178 612.516 240.488L621.247 241.045C632.02 242.036 637.903 242.964 637.964 244.079Z" fill="#1BD47B"/>
<path d="M514.397 406.305C514.826 405.931 515.305 405.619 515.821 405.376L520.031 403.085L536.563 394.355H536.935C536.935 394.355 536.253 394.355 536.315 394.85V394.355C537.12 393.921 537.987 393.364 538.916 392.745H539.349H538.978C559.45 380.071 577.674 364.085 592.908 345.44L593.899 345.006C593.899 345.006 592.599 345.502 592.723 345.997V345.378C614.471 318.427 629.207 286.509 635.614 252.476C642.021 218.442 639.9 183.351 629.44 150.337L630.802 151.451H629.749V150.399C626.856 140.738 623.212 131.319 618.852 122.226C599.228 82.7959 567.39 50.7617 528.08 30.8974C496.076 14.3203 460.654 5.41714 424.616 4.89198C400.416 4.50187 376.317 8.09997 353.287 15.5418C345.175 18.2662 338.922 20.6191 334.711 22.4766L329.943 24.396L328.272 25.0153C336.203 20.7537 344.49 17.1903 353.039 14.3654C376.096 6.40159 400.347 2.44361 424.74 2.66294C461.079 2.84141 496.864 11.581 529.195 28.173C548.273 37.9178 565.8 50.4375 581.206 65.3237C597.858 81.3464 611.509 100.219 621.514 121.05C625.973 130.292 629.68 139.879 632.598 149.718L631.235 148.541H632.288L632.598 149.532C643.301 183.01 645.452 218.635 638.855 253.157C632.257 287.68 617.121 320.001 594.828 347.173V346.554C594.828 347.049 593.899 347.793 593.589 347.607L594.58 347.173C579.178 365.799 560.683 381.634 539.907 393.983H540.278L537.554 395.593V395.098C537.554 395.098 537.058 395.779 536.873 395.655H537.244L520.341 403.89L515.944 405.933L514.397 406.305Z" fill="white"/>
<path d="M233.122 105.694C234.36 103.465 235.784 101.36 237.146 99.193C137.706 58.9465 84.7048 47.6155 68.6681 52.8786C67.7118 53.0772 66.8441 53.5761 66.1914 54.3026L65.8818 54.86C65.5702 55.7414 65.5702 56.7029 65.8818 57.5843C69.4111 68.7295 103.032 115.787 387.111 254.235C558.066 337.576 694.904 380.857 741.9 385.996C743.066 386.031 744.218 385.737 745.223 385.146C746.229 384.556 747.047 383.693 747.584 382.658C748.121 381.623 748.355 380.457 748.258 379.295C748.162 378.133 747.739 377.022 747.039 376.089C730.507 360.053 692.49 332.004 631.748 295.287C630.943 297.02 630.2 298.754 629.271 300.426C679.115 330.889 707.845 353.427 703.573 360.919C695.462 375.965 558.314 324.574 397.204 246.186C236.094 167.798 112.382 92.0106 120.184 76.9646C125.261 68.7295 168.541 80.4939 233.122 105.694Z" fill="#1BD47B"/>
<path d="M641.182 274.357C640.624 275.843 640.005 277.329 639.386 278.815C717.093 325.315 768.484 364.014 774.49 382.837C775.561 385.631 775.699 388.696 774.885 391.575C774.07 394.454 772.346 396.992 769.97 398.811C765.017 402.774 749.847 414.848 632.018 375.283C545.572 345.509 461.075 310.353 379.022 270.023C342.305 252.066 303.482 232.872 265.96 212.934C157.604 155.908 59.2784 96.3432 48.5666 62.9076C47.6142 60.2934 47.2266 57.5071 47.4293 54.7322C47.6321 51.9574 48.4207 49.257 49.7431 46.809C51.1055 44.2894 52.9663 42.0733 55.2123 40.2957C57.4583 38.518 60.0425 37.216 62.8077 36.4688C91.4756 27.1192 168.068 52.072 247.261 84.3931C247.942 83.5262 248.499 82.6594 249.118 81.7925C114.571 28.4194 19.0318 6.4386 3.9239 26.8095C-28.6449 70.5235 145.778 180.923 369.363 289.712C592.948 398.502 796.162 452.308 813.313 420.545C824.582 399.493 754.739 342.219 641.182 274.357Z" fill="#1BD47B"/>
<path d="M656.171 331.752C657.409 332.99 642.611 331.752 642.24 331.752C636.729 330.508 631.293 328.958 625.955 327.108C611.59 322.65 597.349 317.511 583.356 311.938C563.604 304.075 544.533 293.673 523.791 288.471C523.354 288.374 522.897 288.433 522.499 288.637C522.101 288.841 521.787 289.178 521.611 289.589C521.434 290 521.407 290.46 521.534 290.889C521.661 291.318 521.933 291.689 522.305 291.939C555.493 314.786 604.408 332.185 644.469 340.049C650.165 341.164 658.957 343.64 662.549 337.387C664.963 333.3 663.415 330.08 659.329 327.913C658.79 327.63 658.17 327.545 657.575 327.672C656.98 327.8 656.449 328.132 656.073 328.61C655.698 329.089 655.502 329.684 655.52 330.292C655.538 330.9 655.768 331.482 656.171 331.938V331.752Z" fill="#1BD47B"/>
<g opacity="0.3">
<path d="M233.172 105.692C234.41 103.463 235.835 101.358 237.197 99.1911C137.757 58.9445 84.7552 47.6136 68.7185 52.8766C67.7622 53.0752 66.8945 53.5742 66.2418 54.3007L65.9322 54.858C65.6206 55.7394 65.6206 56.7009 65.9322 57.5823C69.4615 68.7275 103.083 115.785 387.162 254.233C558.117 337.574 694.955 380.855 741.95 385.994C743.116 386.029 744.268 385.735 745.273 385.145C746.279 384.554 747.097 383.691 747.634 382.656C748.171 381.621 748.405 380.455 748.309 379.293C748.212 378.131 747.79 377.02 747.089 376.087C730.557 360.051 692.54 332.002 631.799 295.285C630.994 297.018 630.251 298.752 629.322 300.424C679.166 330.887 707.896 353.425 703.623 360.917C695.512 375.964 558.364 324.572 397.254 246.184C236.144 167.796 112.432 92.0086 120.234 76.9626C125.311 68.7275 168.592 80.4919 233.172 105.692Z" fill="#0F7544"/>
<path d="M656.203 331.754C657.441 332.992 642.643 331.754 642.271 331.754C636.761 330.51 631.325 328.96 625.987 327.11C611.622 322.652 597.381 317.513 583.387 311.94C563.636 304.077 544.565 293.674 523.823 288.473C523.386 288.376 522.929 288.435 522.531 288.639C522.133 288.843 521.818 289.18 521.642 289.591C521.466 290.002 521.439 290.462 521.566 290.891C521.693 291.32 521.965 291.691 522.337 291.941C555.524 314.788 604.439 332.187 644.5 340.051C650.197 341.166 658.989 343.642 662.58 337.389C664.995 333.302 663.447 330.082 659.361 327.915C658.822 327.632 658.201 327.547 657.607 327.674C657.012 327.802 656.481 328.133 656.105 328.612C655.73 329.091 655.534 329.686 655.552 330.294C655.57 330.902 655.8 331.484 656.203 331.94V331.754Z" fill="#0F7544"/>
</g>
<g opacity="0.3">
<path d="M641.182 274.359C640.624 275.845 640.005 277.331 639.386 278.817C717.093 325.317 768.484 364.016 774.49 382.839C775.561 385.633 775.699 388.698 774.885 391.577C774.07 394.456 772.346 396.994 769.97 398.813C765.017 402.776 749.847 414.85 632.018 375.285C545.572 345.511 461.075 310.355 379.022 270.025C342.305 252.068 303.482 232.874 265.96 212.936C157.604 155.91 59.2784 96.3451 48.5666 62.9096C47.6142 60.2954 47.2266 57.5091 47.4293 54.7342C47.6321 51.9593 48.4207 49.2589 49.7431 46.811C51.1055 44.2914 52.9663 42.0753 55.2123 40.2976C57.4583 38.52 60.0425 37.218 62.8077 36.4707C91.4756 27.1212 168.068 52.074 247.261 84.395C247.942 83.5282 248.499 82.6613 249.118 81.7945C114.571 28.4214 19.0318 6.44056 3.9239 26.8115C-28.6449 70.5254 145.778 180.925 369.363 289.714C592.948 398.504 796.162 452.31 813.313 420.547C824.582 399.495 754.739 342.221 641.182 274.359Z" fill="#0F7544"/>
</g>
</svg>
