<svg width="25" height="28" viewBox="0 0 25 28" fill="none" xmlns="http://www.w3.org/2000/svg">
<path d="M0.364868 25.3601C0.364868 26.7797 1.51665 27.9315 2.9363 27.9315H21.7934C23.2131 27.9315 24.3649 26.7797 24.3649 25.3601V10.7886H0.364868V25.3601ZM17.5077 14.8601C17.5077 14.5065 17.797 14.2172 18.1506 14.2172H20.2934C20.647 14.2172 20.9363 14.5065 20.9363 14.8601V17.0029C20.9363 17.3565 20.647 17.6458 20.2934 17.6458H18.1506C17.797 17.6458 17.5077 17.3565 17.5077 17.0029V14.8601ZM17.5077 21.7172C17.5077 21.3636 17.797 21.0744 18.1506 21.0744H20.2934C20.647 21.0744 20.9363 21.3636 20.9363 21.7172V23.8601C20.9363 24.2136 20.647 24.5029 20.2934 24.5029H18.1506C17.797 24.5029 17.5077 24.2136 17.5077 23.8601V21.7172ZM10.6506 14.8601C10.6506 14.5065 10.9399 14.2172 11.2934 14.2172H13.4363C13.7899 14.2172 14.0792 14.5065 14.0792 14.8601V17.0029C14.0792 17.3565 13.7899 17.6458 13.4363 17.6458H11.2934C10.9399 17.6458 10.6506 17.3565 10.6506 17.0029V14.8601ZM10.6506 21.7172C10.6506 21.3636 10.9399 21.0744 11.2934 21.0744H13.4363C13.7899 21.0744 14.0792 21.3636 14.0792 21.7172V23.8601C14.0792 24.2136 13.7899 24.5029 13.4363 24.5029H11.2934C10.9399 24.5029 10.6506 24.2136 10.6506 23.8601V21.7172ZM3.79344 14.8601C3.79344 14.5065 4.08273 14.2172 4.4363 14.2172H6.57915C6.93273 14.2172 7.22201 14.5065 7.22201 14.8601V17.0029C7.22201 17.3565 6.93273 17.6458 6.57915 17.6458H4.4363C4.08273 17.6458 3.79344 17.3565 3.79344 17.0029V14.8601ZM3.79344 21.7172C3.79344 21.3636 4.08273 21.0744 4.4363 21.0744H6.57915C6.93273 21.0744 7.22201 21.3636 7.22201 21.7172V23.8601C7.22201 24.2136 6.93273 24.5029 6.57915 24.5029H4.4363C4.08273 24.5029 3.79344 24.2136 3.79344 23.8601V21.7172ZM21.7934 3.9315H19.222V1.36007C19.222 0.888644 18.8363 0.50293 18.3649 0.50293H16.6506C16.1792 0.50293 15.7934 0.888644 15.7934 1.36007V3.9315H8.9363V1.36007C8.9363 0.888644 8.55058 0.50293 8.07915 0.50293H6.36487C5.89344 0.50293 5.50773 0.888644 5.50773 1.36007V3.9315H2.9363C1.51665 3.9315 0.364868 5.08329 0.364868 6.50293V9.07436H24.3649V6.50293C24.3649 5.08329 23.2131 3.9315 21.7934 3.9315Z" fill="#272727"/>
</svg>
