<svg width="69" height="60" viewBox="0 0 69 60" fill="none" xmlns="http://www.w3.org/2000/svg">
<rect x="0.364868" y="0.231445" width="68" height="59.272" rx="8" fill="#C1D7C3"/>
<path d="M18.3649 44.7249C18.3649 46.6177 19.9006 48.1535 21.7934 48.1535H46.9363C48.8292 48.1535 50.3649 46.6177 50.3649 44.7249V25.2963H18.3649V44.7249ZM41.222 30.7249C41.222 30.2535 41.6077 29.8677 42.0792 29.8677H44.9363C45.4077 29.8677 45.7934 30.2535 45.7934 30.7249V33.582C45.7934 34.0535 45.4077 34.4392 44.9363 34.4392H42.0792C41.6077 34.4392 41.222 34.0535 41.222 33.582V30.7249ZM41.222 39.8677C41.222 39.3963 41.6077 39.0106 42.0792 39.0106H44.9363C45.4077 39.0106 45.7934 39.3963 45.7934 39.8677V42.7249C45.7934 43.1963 45.4077 43.582 44.9363 43.582H42.0792C41.6077 43.582 41.222 43.1963 41.222 42.7249V39.8677ZM32.0792 30.7249C32.0792 30.2535 32.4649 29.8677 32.9363 29.8677H35.7934C36.2649 29.8677 36.6506 30.2535 36.6506 30.7249V33.582C36.6506 34.0535 36.2649 34.4392 35.7934 34.4392H32.9363C32.4649 34.4392 32.0792 34.0535 32.0792 33.582V30.7249ZM32.0792 39.8677C32.0792 39.3963 32.4649 39.0106 32.9363 39.0106H35.7934C36.2649 39.0106 36.6506 39.3963 36.6506 39.8677V42.7249C36.6506 43.1963 36.2649 43.582 35.7934 43.582H32.9363C32.4649 43.582 32.0792 43.1963 32.0792 42.7249V39.8677ZM22.9363 30.7249C22.9363 30.2535 23.322 29.8677 23.7934 29.8677H26.6506C27.122 29.8677 27.5077 30.2535 27.5077 30.7249V33.582C27.5077 34.0535 27.122 34.4392 26.6506 34.4392H23.7934C23.322 34.4392 22.9363 34.0535 22.9363 33.582V30.7249ZM22.9363 39.8677C22.9363 39.3963 23.322 39.0106 23.7934 39.0106H26.6506C27.122 39.0106 27.5077 39.3963 27.5077 39.8677V42.7249C27.5077 43.1963 27.122 43.582 26.6506 43.582H23.7934C23.322 43.582 22.9363 43.1963 22.9363 42.7249V39.8677ZM46.9363 16.1535H43.5077V12.7249C43.5077 12.0963 42.9934 11.582 42.3649 11.582H40.0792C39.4506 11.582 38.9363 12.0963 38.9363 12.7249V16.1535H29.7934V12.7249C29.7934 12.0963 29.2792 11.582 28.6506 11.582H26.3649C25.7363 11.582 25.222 12.0963 25.222 12.7249V16.1535H21.7934C19.9006 16.1535 18.3649 17.6892 18.3649 19.582V23.0106H50.3649V19.582C50.3649 17.6892 48.8292 16.1535 46.9363 16.1535Z" fill="#377E3F"/>
</svg>
