<svg width="40" height="40" viewBox="0 0 40 40" fill="none" xmlns="http://www.w3.org/2000/svg">
    <path d="M18.3334 18.333H28.3334C28.8056 18.333 29.2012 18.173 29.52 17.853C29.84 17.5341 30 17.1386 30 16.6663C30 16.1941 29.84 15.798 29.52 15.478C29.2012 15.1591 28.8056 14.9997 28.3334 14.9997H18.3334C17.8612 14.9997 17.4656 15.1591 17.1467 15.478C16.8267 15.798 16.6667 16.1941 16.6667 16.6663C16.6667 17.1386 16.8267 17.5341 17.1467 17.853C17.4656 18.173 17.8612 18.333 18.3334 18.333ZM18.3334 23.333H21.6667C22.1389 23.333 22.535 23.173 22.855 22.853C23.1739 22.5341 23.3334 22.1386 23.3334 21.6663C23.3334 21.1941 23.1739 20.798 22.855 20.478C22.535 20.1591 22.1389 19.9997 21.6667 19.9997H18.3334C17.8612 19.9997 17.4656 20.1591 17.1467 20.478C16.8267 20.798 16.6667 21.1941 16.6667 21.6663C16.6667 22.1386 16.8267 22.5341 17.1467 22.853C17.4656 23.173 17.8612 23.333 18.3334 23.333ZM18.3334 13.333H28.3334C28.8056 13.333 29.2012 13.1736 29.52 12.8547C29.84 12.5347 30 12.1386 30 11.6663C30 11.1941 29.84 10.798 29.52 10.478C29.2012 10.1591 28.8056 9.99967 28.3334 9.99967H18.3334C17.8612 9.99967 17.4656 10.1591 17.1467 10.478C16.8267 10.798 16.6667 11.1941 16.6667 11.6663C16.6667 12.1386 16.8267 12.5347 17.1467 12.8547C17.4656 13.1736 17.8612 13.333 18.3334 13.333ZM13.3334 29.9997C12.4167 29.9997 11.6323 29.6736 10.98 29.0213C10.3267 28.368 10 27.583 10 26.6663V6.66634C10 5.74967 10.3267 4.96467 10.98 4.31134C11.6323 3.65912 12.4167 3.33301 13.3334 3.33301H33.3334C34.25 3.33301 35.035 3.65912 35.6884 4.31134C36.3406 4.96467 36.6667 5.74967 36.6667 6.66634V26.6663C36.6667 27.583 36.3406 28.368 35.6884 29.0213C35.035 29.6736 34.25 29.9997 33.3334 29.9997H13.3334ZM13.3334 26.6663H33.3334V6.66634H13.3334V26.6663ZM6.66671 36.6663C5.75004 36.6663 4.9656 36.3402 4.31337 35.688C3.66004 35.0347 3.33337 34.2497 3.33337 33.333V11.6663C3.33337 11.1941 3.49337 10.798 3.81337 10.478C4.13226 10.1591 4.52782 9.99967 5.00004 9.99967C5.47226 9.99967 5.86837 10.1591 6.18837 10.478C6.50726 10.798 6.66671 11.1941 6.66671 11.6663V33.333H28.3334C28.8056 33.333 29.2012 33.493 29.52 33.813C29.84 34.1319 30 34.5275 30 34.9997C30 35.4719 29.84 35.8675 29.52 36.1863C29.2012 36.5063 28.8056 36.6663 28.3334 36.6663H6.66671Z" fill="black"/>
</svg>