 <svg
    className=""
    width="32"
    height="32"
    viewBox="0 0 32 32"
    fill="none"
    xmlns="http://www.w3.org/2000/svg"
  >
    <path
      d="M3.33337 3.66699C3.33337 3.40178 3.22802 3.14742 3.04048 2.95989C2.85294 2.77235 2.59859 2.66699 2.33337 2.66699C2.06816 2.66699 1.8138 2.77235 1.62627 2.95989C1.43873 3.14742 1.33337 3.40178 1.33337 3.66699V28.3337C1.33337 28.8857 1.78137 29.3337 2.33337 29.3337H26.6667C26.9319 29.3337 27.1863 29.2283 27.3738 29.0408C27.5614 28.8532 27.6667 28.5989 27.6667 28.3337C27.6667 28.0684 27.5614 27.8141 27.3738 27.6265C27.1863 27.439 26.9319 27.3337 26.6667 27.3337H3.33337V3.66699Z"
      fill="#377E3F"
    />
    <path
      d="M29.7067 10.3731C29.8833 10.1836 29.9795 9.93283 29.9749 9.67377C29.9704 9.4147 29.8654 9.16752 29.6822 8.9843C29.499 8.80108 29.2518 8.69613 28.9927 8.69156C28.7337 8.68699 28.4829 8.78315 28.2934 8.9598L20.6667 16.5865L15.7067 11.6265C15.5192 11.4392 15.265 11.334 15 11.334C14.735 11.334 14.4809 11.4392 14.2934 11.6265L6.29337 19.6265C6.19513 19.718 6.11632 19.8284 6.06167 19.9511C6.00701 20.0737 5.97762 20.2062 5.97525 20.3404C5.97288 20.4747 5.99758 20.6081 6.04788 20.7326C6.09817 20.8571 6.17303 20.9702 6.26799 21.0652C6.36295 21.1601 6.47606 21.235 6.60058 21.2853C6.7251 21.3356 6.85847 21.3603 6.99274 21.3579C7.12701 21.3555 7.25943 21.3262 7.38209 21.2715C7.50476 21.2168 7.61516 21.138 7.70671 21.0398L15 13.7465L19.96 18.7065C20.1475 18.8937 20.4017 18.9989 20.6667 18.9989C20.9317 18.9989 21.1859 18.8937 21.3734 18.7065L29.7067 10.3731Z"
      fill="#377E3F"
    />
  </svg>