<svg width="25" height="25" viewBox="0 0 25 25" fill="none" xmlns="http://www.w3.org/2000/svg">
<path d="M13.6982 12.3983L17.0315 15.7316C17.276 15.9761 17.3982 16.2872 17.3982 16.665C17.3982 17.0428 17.276 17.3539 17.0315 17.5983C16.7871 17.8428 16.476 17.965 16.0982 17.965C15.7204 17.965 15.4093 17.8428 15.1649 17.5983L11.4315 13.865C11.2982 13.7316 11.1982 13.5814 11.1315 13.4143C11.0649 13.2481 11.0315 13.0761 11.0315 12.8983V7.59831C11.0315 7.22053 11.1595 6.90364 11.4155 6.64764C11.6706 6.39253 11.9871 6.26497 12.3649 6.26497C12.7426 6.26497 13.0595 6.39253 13.3155 6.64764C13.5706 6.90364 13.6982 7.22053 13.6982 7.59831V12.3983ZM12.3649 24.9316C9.67598 24.9316 7.26487 24.137 5.13153 22.5476C2.9982 20.9592 1.56487 18.8872 0.831535 16.3316C0.720424 15.9316 0.759535 15.5539 0.948868 15.1983C1.13731 14.8428 1.43153 14.6205 1.83153 14.5316C2.20931 14.4428 2.54842 14.5259 2.84887 14.781C3.14842 15.037 3.35376 15.3539 3.46487 15.7316C4.04265 17.6872 5.15953 19.265 6.81553 20.465C8.47065 21.665 10.3204 22.265 12.3649 22.265C14.9649 22.265 17.1702 21.3592 18.9809 19.5476C20.7924 17.737 21.6982 15.5316 21.6982 12.9316C21.6982 10.3316 20.7924 8.12586 18.9809 6.31431C17.1702 4.50364 14.9649 3.59831 12.3649 3.59831C10.8315 3.59831 9.3982 3.95386 8.06487 4.66497C6.73153 5.37609 5.60931 6.35386 4.6982 7.59831H7.03154C7.40931 7.59831 7.7262 7.72586 7.9822 7.98097C8.23731 8.23697 8.36487 8.55386 8.36487 8.93164C8.36487 9.30942 8.23731 9.62586 7.9822 9.88097C7.7262 10.137 7.40931 10.265 7.03154 10.265H1.6982C1.32042 10.265 1.00398 10.137 0.748868 9.88097C0.492868 9.62586 0.364868 9.30942 0.364868 8.93164V3.59831C0.364868 3.22053 0.492868 2.90364 0.748868 2.64764C1.00398 2.39253 1.32042 2.26497 1.6982 2.26497C2.07598 2.26497 2.39287 2.39253 2.64887 2.64764C2.90398 2.90364 3.03153 3.22053 3.03153 3.59831V5.39831C4.16487 3.97608 5.54842 2.87609 7.1822 2.09831C8.81509 1.32053 10.5426 0.931641 12.3649 0.931641C14.0315 0.931641 15.5929 1.24808 17.0489 1.88097C18.504 2.51475 19.7706 3.37031 20.8489 4.44764C21.9262 5.52586 22.7818 6.79253 23.4155 8.24764C24.0484 9.70364 24.3649 11.265 24.3649 12.9316C24.3649 14.5983 24.0484 16.1592 23.4155 17.6143C22.7818 19.0703 21.9262 20.337 20.8489 21.4143C19.7706 22.4925 18.504 23.3485 17.0489 23.9823C15.5929 24.6152 14.0315 24.9316 12.3649 24.9316Z" fill="#272727"/>
</svg>
