<svg width="69" height="60" viewBox="0 0 69 60" fill="none" xmlns="http://www.w3.org/2000/svg">
<rect x="0.364868" y="0.660156" width="68" height="59.272" rx="8" fill="#C1D7C3"/>
<path d="M36.1426 29.5848L40.5871 34.0292C40.913 34.3552 41.076 34.77 41.076 35.2737C41.076 35.7774 40.913 36.1922 40.5871 36.5181C40.2612 36.844 39.8463 37.007 39.3426 37.007C38.8389 37.007 38.4241 36.844 38.0982 36.5181L33.1204 31.5403C32.9426 31.3626 32.8093 31.1623 32.7204 30.9395C32.6315 30.7178 32.5871 30.4885 32.5871 30.2515V23.1848C32.5871 22.6811 32.7578 22.2586 33.0991 21.9172C33.4392 21.5771 33.8612 21.407 34.3649 21.407C34.8686 21.407 35.2911 21.5771 35.6324 21.9172C35.9726 22.2586 36.1426 22.6811 36.1426 23.1848V29.5848ZM34.3649 46.2959C30.7797 46.2959 27.5649 45.2363 24.7204 43.1172C21.876 40.9993 19.9649 38.2366 18.9871 34.8292C18.8389 34.2959 18.8911 33.7922 19.1435 33.3181C19.3948 32.844 19.7871 32.5478 20.3204 32.4292C20.8241 32.3107 21.2763 32.4215 21.6769 32.7617C22.0763 33.103 22.3501 33.5255 22.4982 34.0292C23.2686 36.6366 24.7578 38.7403 26.9658 40.3403C29.1726 41.9403 31.6389 42.7403 34.3649 42.7403C37.8315 42.7403 40.772 41.5326 43.1862 39.1172C45.6016 36.703 46.8093 33.7626 46.8093 30.2959C46.8093 26.8292 45.6016 23.8882 43.1862 21.4728C40.772 19.0586 37.8315 17.8515 34.3649 17.8515C32.3204 17.8515 30.4093 18.3255 28.6315 19.2737C26.8538 20.2218 25.3575 21.5255 24.1426 23.1848H27.2538C27.7575 23.1848 28.18 23.3549 28.5213 23.695C28.8615 24.0363 29.0315 24.4589 29.0315 24.9626C29.0315 25.4663 28.8615 25.8882 28.5213 26.2283C28.18 26.5697 27.7575 26.7403 27.2538 26.7403H20.1426C19.6389 26.7403 19.217 26.5697 18.8769 26.2283C18.5355 25.8882 18.3649 25.4663 18.3649 24.9626V17.8515C18.3649 17.3478 18.5355 16.9252 18.8769 16.5839C19.217 16.2438 19.6389 16.0737 20.1426 16.0737C20.6463 16.0737 21.0689 16.2438 21.4102 16.5839C21.7503 16.9252 21.9204 17.3478 21.9204 17.8515V20.2515C23.4315 18.3552 25.2763 16.8885 27.4546 15.8515C29.6318 14.8144 31.9352 14.2959 34.3649 14.2959C36.5871 14.2959 38.6689 14.7178 40.6102 15.5617C42.5503 16.4067 44.2392 17.5475 45.6769 18.9839C47.1133 20.4215 48.2541 22.1104 49.0991 24.0506C49.9429 25.9919 50.3649 28.0737 50.3649 30.2959C50.3649 32.5181 49.9429 34.5993 49.0991 36.5395C48.2541 38.4808 47.1133 40.1697 45.6769 41.6061C44.2392 43.0437 42.5503 44.1851 40.6102 45.0301C38.6689 45.874 36.5871 46.2959 34.3649 46.2959Z" fill="#377E3F"/>
</svg>
