<svg width="25" height="26" viewBox="0 0 25 26" fill="none" xmlns="http://www.w3.org/2000/svg">
<path d="M14.6736 25.5585H10.0561C9.74826 25.5585 9.48147 25.4559 9.25573 25.2507C9.02998 25.0454 8.89658 24.7889 8.85554 24.4811L8.48614 21.6182C8.21935 21.5156 7.96815 21.3925 7.73255 21.2488C7.49614 21.1051 7.26505 20.9512 7.03931 20.7871L4.36114 21.8953C4.07382 21.9979 3.78651 22.0081 3.4992 21.926C3.21188 21.844 2.98614 21.6695 2.82196 21.4027L0.543973 17.4316C0.379794 17.1648 0.328488 16.8775 0.390055 16.5697C0.451622 16.2619 0.60554 16.0156 0.851808 15.8309L3.16058 14.0762C3.14005 13.9326 3.12979 13.7938 3.12979 13.66V12.8289C3.12979 12.6959 3.14005 12.5576 3.16058 12.4139L0.851808 10.6593C0.60554 10.4746 0.451622 10.2283 0.390055 9.92045C0.328488 9.61261 0.379794 9.3253 0.543973 9.05851L2.82196 5.08742C2.96561 4.80011 3.18603 4.62033 3.48319 4.5481C3.78117 4.47668 4.07382 4.49227 4.36114 4.59489L7.03931 5.7031C7.26505 5.53892 7.50106 5.385 7.74733 5.24134C7.9936 5.09769 8.23987 4.97455 8.48614 4.87194L8.85554 2.00907C8.89658 1.70123 9.02998 1.4447 9.25573 1.23948C9.48147 1.03425 9.74826 0.931641 10.0561 0.931641H14.6736C14.9815 0.931641 15.2483 1.03425 15.474 1.23948C15.6998 1.4447 15.8332 1.70123 15.8742 2.00907L16.2436 4.87194C16.5104 4.97455 16.762 5.09769 16.9984 5.24134C17.234 5.385 17.4647 5.53892 17.6904 5.7031L20.3686 4.59489C20.6559 4.49227 20.9432 4.48201 21.2305 4.5641C21.5179 4.64619 21.7436 4.82063 21.9078 5.08742L24.1858 9.05851C24.3499 9.3253 24.4012 9.61261 24.3397 9.92045C24.2781 10.2283 24.1242 10.4746 23.8779 10.6593L21.5692 12.4139C21.5897 12.5576 21.5999 12.6959 21.5999 12.8289V13.66C21.5999 13.7938 21.5794 13.9326 21.5384 14.0762L23.8471 15.8309C24.0934 16.0156 24.2473 16.2619 24.3089 16.5697C24.3705 16.8775 24.3192 17.1648 24.155 17.4316L21.877 21.3719C21.7128 21.6387 21.4821 21.8185 21.185 21.9113C20.887 22.0032 20.5943 21.9979 20.307 21.8953L17.6904 20.7871C17.4647 20.9512 17.2287 21.1051 16.9824 21.2488C16.7361 21.3925 16.4899 21.5156 16.2436 21.6182L15.8742 24.4811C15.8332 24.7889 15.6998 25.0454 15.474 25.2507C15.2483 25.4559 14.9815 25.5585 14.6736 25.5585ZM12.4264 17.5548C13.6167 17.5548 14.6326 17.1341 15.474 16.2926C16.3154 15.4512 16.7361 14.4354 16.7361 13.2451C16.7361 12.0548 16.3154 11.0389 15.474 10.1975C14.6326 9.35608 13.6167 8.93537 12.4264 8.93537C11.2156 8.93537 10.1944 9.35608 9.36285 10.1975C8.53211 11.0389 8.11673 12.0548 8.11673 13.2451C8.11673 14.4354 8.53211 15.4512 9.36285 16.2926C10.1944 17.1341 11.2156 17.5548 12.4264 17.5548ZM12.4264 15.0921C11.9134 15.0921 11.4775 14.9123 11.1187 14.5528C10.7592 14.194 10.5794 13.7581 10.5794 13.2451C10.5794 12.732 10.7592 12.2961 11.1187 11.9374C11.4775 11.5778 11.9134 11.3981 12.4264 11.3981C12.9395 11.3981 13.3758 11.5778 13.7354 11.9374C14.0941 12.2961 14.2735 12.732 14.2735 13.2451C14.2735 13.7581 14.0941 14.194 13.7354 14.5528C13.3758 14.9123 12.9395 15.0921 12.4264 15.0921ZM11.1335 23.0958H13.5654L13.9964 19.8328C14.6326 19.6686 15.2228 19.4272 15.7671 19.1087C16.3105 18.791 16.808 18.4065 17.2595 17.955L20.307 19.2171L21.5076 17.1238L18.8602 15.1229C18.9628 14.8356 19.0346 14.5326 19.0757 14.2141C19.1167 13.8965 19.1373 13.5734 19.1373 13.2451C19.1373 12.9167 19.1167 12.5933 19.0757 12.2748C19.0346 11.9571 18.9628 11.6546 18.8602 11.3673L21.5076 9.36634L20.307 7.27306L17.2595 8.56597C16.808 8.09395 16.3105 7.69869 15.7671 7.38019C15.2228 7.0625 14.6326 6.82157 13.9964 6.65739L13.5962 3.39433H11.1643L10.7333 6.65739C10.0971 6.82157 9.50733 7.0625 8.9639 7.38019C8.41964 7.69869 7.92177 8.08369 7.47028 8.53519L4.4227 7.27306L3.22214 9.36634L5.86953 11.3365C5.76692 11.6443 5.69509 11.9522 5.65405 12.26C5.613 12.5678 5.59248 12.8962 5.59248 13.2451C5.59248 13.5734 5.613 13.8915 5.65405 14.1994C5.69509 14.5072 5.76692 14.815 5.86953 15.1229L3.22214 17.1238L4.4227 19.2171L7.47028 17.9242C7.92177 18.3962 8.41964 18.791 8.9639 19.1087C9.50733 19.4272 10.0971 19.6686 10.7333 19.8328L11.1335 23.0958Z" fill="#272727"/>
</svg>
