<svg width="69" height="60" viewBox="0 0 69 60" fill="none" xmlns="http://www.w3.org/2000/svg">
<rect x="0.364746" y="0.660645" width="68" height="59.27" rx="8" fill="#C1D7C3"/>
<path d="M37.4431 46.7137H31.2864C30.8759 46.7137 30.5202 46.5769 30.2192 46.3033C29.9182 46.0297 29.7404 45.6876 29.6856 45.2772L29.1931 41.46C28.8374 41.3232 28.5025 41.159 28.1883 40.9675C27.8731 40.7759 27.565 40.5707 27.264 40.3518L23.6931 41.8294C23.31 41.9662 22.9269 41.9799 22.5439 41.8705C22.1608 41.761 21.8598 41.5284 21.6409 41.1727L18.6036 35.8779C18.3846 35.5222 18.3162 35.1391 18.3983 34.7287C18.4804 34.3182 18.6856 33.9899 19.014 33.7436L22.0924 31.404C22.065 31.2125 22.0513 31.0275 22.0513 30.8491V29.7409C22.0513 29.5636 22.065 29.3792 22.0924 29.1876L19.014 26.8481C18.6856 26.6018 18.4804 26.2735 18.3983 25.863C18.3162 25.4526 18.3846 25.0695 18.6036 24.7138L21.6409 19.419C21.8324 19.0359 22.1263 18.7962 22.5225 18.6999C22.9198 18.6046 23.31 18.6254 23.6931 18.7623L27.264 20.2399C27.565 20.021 27.8797 19.8157 28.208 19.6242C28.5364 19.4327 28.8647 19.2685 29.1931 19.1317L29.6856 15.3145C29.7404 14.904 29.9182 14.562 30.2192 14.2884C30.5202 14.0147 30.8759 13.8779 31.2864 13.8779H37.4431C37.8536 13.8779 38.2093 14.0147 38.5103 14.2884C38.8113 14.562 38.9891 14.904 39.0438 15.3145L39.5364 19.1317C39.8921 19.2685 40.2276 19.4327 40.5428 19.6242C40.8569 19.8157 41.1645 20.021 41.4655 20.2399L45.0364 18.7623C45.4195 18.6254 45.8026 18.6118 46.1856 18.7212C46.5687 18.8307 46.8697 19.0633 47.0886 19.419L50.1259 24.7138C50.3448 25.0695 50.4133 25.4526 50.3312 25.863C50.2491 26.2735 50.0438 26.6018 49.7155 26.8481L46.6371 29.1876C46.6645 29.3792 46.6782 29.5636 46.6782 29.7409V30.8491C46.6782 31.0275 46.6508 31.2125 46.5961 31.404L49.6744 33.7436C50.0028 33.9899 50.208 34.3182 50.2901 34.7287C50.3722 35.1391 50.3038 35.5222 50.0849 35.8779L47.0476 41.1317C46.8287 41.4874 46.5211 41.7271 46.1249 41.8508C45.7276 41.9734 45.3374 41.9662 44.9543 41.8294L41.4655 40.3518C41.1645 40.5707 40.8498 40.7759 40.5215 40.9675C40.1931 41.159 39.8647 41.3232 39.5364 41.46L39.0438 45.2772C38.9891 45.6876 38.8113 46.0297 38.5103 46.3033C38.2093 46.5769 37.8536 46.7137 37.4431 46.7137ZM34.4468 36.0421C36.0339 36.0421 37.3884 35.4812 38.5103 34.3593C39.6322 33.2374 40.1931 31.8829 40.1931 30.2958C40.1931 28.7088 39.6322 27.3543 38.5103 26.2324C37.3884 25.1105 36.0339 24.5496 34.4468 24.5496C32.8324 24.5496 31.4708 25.1105 30.3621 26.2324C29.2544 27.3543 28.7006 28.7088 28.7006 30.2958C28.7006 31.8829 29.2544 33.2374 30.3621 34.3593C31.4708 35.4812 32.8324 36.0421 34.4468 36.0421ZM34.4468 32.7585C33.7628 32.7585 33.1816 32.5188 32.7033 32.0394C32.2239 31.5611 31.9841 30.9799 31.9841 30.2958C31.9841 29.6118 32.2239 29.0306 32.7033 28.5523C33.1816 28.0729 33.7628 27.8332 34.4468 27.8332C35.1309 27.8332 35.7127 28.0729 36.1921 28.5523C36.6704 29.0306 36.9095 29.6118 36.9095 30.2958C36.9095 30.9799 36.6704 31.5611 36.1921 32.0394C35.7127 32.5188 35.1309 32.7585 34.4468 32.7585ZM32.723 43.4302H35.9655L36.5401 39.0794C37.3884 38.8605 38.1753 38.5387 38.901 38.114C39.6256 37.6905 40.2889 37.1777 40.8909 36.5757L44.9543 38.2585L46.555 35.4675L43.0252 32.7996C43.162 32.4165 43.2578 32.0126 43.3125 31.5879C43.3672 31.1643 43.3946 30.7337 43.3946 30.2958C43.3946 29.858 43.3672 29.4268 43.3125 29.0021C43.2578 28.5785 43.162 28.1752 43.0252 27.7921L46.555 25.1242L44.9543 22.3332L40.8909 24.057C40.2889 23.4277 39.6256 22.9007 38.901 22.476C38.1753 22.0524 37.3884 21.7312 36.5401 21.5123L36.0065 17.1615H32.764L32.1894 21.5123C31.3411 21.7312 30.5547 22.0524 29.8301 22.476C29.1044 22.9007 28.4406 23.414 27.8386 24.016L23.7752 22.3332L22.1744 25.1242L25.7043 27.7511C25.5675 28.1615 25.4717 28.572 25.417 28.9824C25.3623 29.3929 25.3349 29.8307 25.3349 30.2958C25.3349 30.7337 25.3623 31.1578 25.417 31.5682C25.4717 31.9787 25.5675 32.3891 25.7043 32.7996L22.1744 35.4675L23.7752 38.2585L27.8386 36.5346C28.4406 37.164 29.1044 37.6905 29.8301 38.114C30.5547 38.5387 31.3411 38.8605 32.1894 39.0794L32.723 43.4302Z" fill="#377E3F"/>
</svg>
