<svg width="40" height="40" viewBox="0 0 40 40" fill="none" xmlns="http://www.w3.org/2000/svg">
<path d="M15.0007 36.6667H25.0007C33.334 36.6667 36.6673 33.3334 36.6673 25V15C36.6673 6.66671 33.334 3.33337 25.0007 3.33337H15.0007C6.66732 3.33337 3.33398 6.66671 3.33398 15V25C3.33398 33.3334 6.66732 36.6667 15.0007 36.6667Z" stroke="#4B4B4B" stroke-width="3" stroke-linecap="round" stroke-linejoin="round"/>
<path d="M14.9993 16.6667C16.8403 16.6667 18.3327 15.1743 18.3327 13.3333C18.3327 11.4924 16.8403 10 14.9993 10C13.1584 10 11.666 11.4924 11.666 13.3333C11.666 15.1743 13.1584 16.6667 14.9993 16.6667Z" stroke="#4B4B4B" stroke-width="3" stroke-linecap="round" stroke-linejoin="round"/>
<path d="M4.44922 31.5842L12.6659 26.0675C13.9826 25.1842 15.8826 25.2842 17.0659 26.3009L17.6159 26.7842C18.9159 27.9009 21.0159 27.9009 22.3159 26.7842L29.2492 20.8342C30.5492 19.7175 32.6492 19.7175 33.9492 20.8342L36.6659 23.1675" stroke="#4B4B4B" stroke-width="3" stroke-linecap="round" stroke-linejoin="round"/>
</svg>
