<svg width="69" height="60" viewBox="0 0 69 60" fill="none" xmlns="http://www.w3.org/2000/svg">
<rect x="0.36483" y="0.660461" width="68" height="59.272" rx="8" fill="#C1D7C3"/>
<path d="M28.8514 21.6605C21.4491 21.6605 18.3648 22.6635 18.3648 23.4728V37.0819C18.3648 37.8727 21.4491 38.9324 28.8514 38.9324C36.2536 38.9324 39.3379 37.9294 39.3379 37.1201V23.511C39.3379 22.7202 36.2536 21.6605 28.8514 21.6605ZM49.6703 21.6987C49.4629 21.707 49.2622 21.7742 49.0916 21.8924L41.0725 27.0579C40.7641 27.2899 40.5716 27.6723 40.5716 28.061V32.5319C40.5716 32.9205 40.7641 33.3018 41.0725 33.5349L49.0916 38.7017C49.3088 38.8658 50.3648 39.3803 50.3648 37.6987V22.8942C50.3648 21.9232 50.0305 21.6839 49.6703 21.6987Z" fill="#377E3F"/>
</svg>
