<svg width="25" height="14" viewBox="0 0 25 14" fill="none" xmlns="http://www.w3.org/2000/svg">
<path d="M8.22978 0.455078C2.67808 0.455078 0.364868 1.20733 0.364868 1.81432V12.0211C0.364868 12.6142 2.67808 13.409 8.22978 13.409C13.7815 13.409 16.0947 12.6568 16.0947 12.0498V1.843C16.0947 1.2499 13.7815 0.455078 8.22978 0.455078ZM23.8439 0.483762C23.6884 0.48996 23.5379 0.540352 23.41 0.629032L17.3956 4.50319C17.1643 4.67715 17.02 4.96398 17.02 5.25545V8.60868C17.02 8.90014 17.1643 9.18605 17.3956 9.36093L23.41 13.236C23.5728 13.3591 24.3649 13.7449 24.3649 12.4838V1.38036C24.3649 0.652163 24.1141 0.472659 23.8439 0.483762Z" fill="#272727"/>
</svg>
