<svg width="86" height="70" viewBox="0 0 86 70" fill="none" xmlns="http://www.w3.org/2000/svg">
<mask id="mask0_10_5223" style="mask-type:luminance" maskUnits="userSpaceOnUse" x="8" y="63" width="71" height="7">
<path d="M8.35864 63.1409H78.7981V69.3667H8.35864V63.1409Z" fill="white"/>
</mask>
<g mask="url(#mask0_10_5223)">
<path d="M75.778 63.3437H10.9781C9.96076 63.3437 9.06389 63.8476 8.51562 64.6177H28.559C29.524 64.6177 30.3068 65.3989 30.3068 66.3607C30.3068 67.3242 29.524 68.1053 28.559 68.1053H8.51562C9.06389 68.8755 9.96076 69.3778 10.9781 69.3778H75.778C77.4481 69.3778 78.8014 68.0277 78.8014 66.3607C78.8014 64.6953 77.4481 63.3437 75.778 63.3437Z" fill="#377E3F"/>
</g>
<path d="M3.66992 13.9126L4.75219 13.8413L5.41772 23.8496L4.33703 23.9209L3.66992 13.9126Z" fill="#377E3F"/>
<path d="M69.0085 18.8613H33.5645C33.1525 19.6362 31.9958 21.4347 29.2798 23.539H65.5636C67.2131 23.539 68.5489 24.8732 68.5489 26.5196V52.8363C68.5489 54.4827 67.2131 55.8169 65.5636 55.8169H21.1937C19.5442 55.8169 18.2084 54.4827 18.2084 52.8363V28.9424C16.4003 29.375 14.9948 29.4748 14.09 29.4748C13.9522 29.4748 13.8286 29.4717 13.7129 29.4669V56.4666C13.7129 58.6913 15.5209 60.4946 17.7488 60.4946H69.0085C71.238 60.4946 73.0444 58.6913 73.0444 56.4666V22.8893C73.0444 20.6645 71.2364 18.8613 69.0085 18.8613Z" fill="#377E3F"/>
<path d="M19.27 8.89583L24.2978 4.40038L24.0966 4.01691L6.46021 13.2392L6.71849 13.7336L12.4087 12.4374C14.5178 11.9572 17.6584 10.3362 19.27 8.89583Z" fill="#377E3F"/>
<mask id="mask1_10_5223" style="mask-type:luminance" maskUnits="userSpaceOnUse" x="0" y="0" width="30" height="16">
<path d="M0 0H29.4526V15.2738H0V0Z" fill="white"/>
</mask>
<g mask="url(#mask1_10_5223)">
<path d="M0.0253906 15.2579L12.4089 12.4373C14.518 11.9572 17.6586 10.3361 19.2701 8.89576L29.2055 0.0141754L16.1089 3.28951C14.0062 3.814 10.8703 5.48415 9.26033 6.93563L0.0253906 15.2579Z" fill="#377E3F"/>
</g>
<path d="M6.01992 26.5735C6.05795 27.1534 5.84403 27.445 5.54454 27.22C5.24347 26.9965 4.77919 27.0267 4.5114 27.2881C4.24519 27.5496 3.99324 27.2897 3.95521 26.7097C3.91718 26.1298 4.34977 25.6243 4.91705 25.5863C5.48433 25.5482 5.9803 25.9935 6.01992 26.5735Z" fill="#377E3F"/>
<path d="M25.4993 6.6901L20.9436 10.7609C19.0057 12.4928 15.5037 14.3008 12.9684 14.8792L7.9231 16.028L13.8114 27.2501C13.8938 27.2516 13.9873 27.2532 14.0903 27.2532C15.6828 27.2532 19.0389 26.8967 23.6105 24.5071C28.8713 21.7563 30.8631 19.0641 31.4652 18.0595L25.4993 6.6901ZM16.5432 25.4753C16.2849 25.61 16.0076 25.675 15.7335 25.675C15.1044 25.675 14.4959 25.3343 14.1854 24.7401L11.3204 19.2812C10.8736 18.4287 11.2032 17.3734 12.0573 16.9265C12.9129 16.4796 13.9699 16.8108 14.4167 17.6633L17.2801 23.1206C17.7285 23.9747 17.3989 25.0285 16.5432 25.4753Z" fill="#377E3F"/>
<mask id="mask2_10_5223" style="mask-type:luminance" maskUnits="userSpaceOnUse" x="77" y="54" width="10" height="16">
<path d="M77.4814 54.8266H86.0002V69.4301H77.4814V54.8266Z" fill="white"/>
</mask>
<g mask="url(#mask2_10_5223)">
<path d="M84.3602 54.8266H79.12C78.2168 54.8266 77.4832 55.5697 77.4832 56.4856V67.7694C77.4832 68.6869 78.2168 69.4301 79.12 69.4301H84.3602C85.2635 69.4301 85.9971 68.6869 85.9971 67.7694V56.4856C85.9971 55.5697 85.2635 54.8266 84.3602 54.8266ZM81.7409 68.7661C81.1974 68.7661 80.7585 68.3209 80.7585 67.7694C80.7585 67.2196 81.1974 66.7743 81.7409 66.7743C82.2844 66.7743 82.7234 67.2196 82.7234 67.7694C82.7234 68.3209 82.2844 68.7661 81.7409 68.7661ZM84.6882 66.1104H78.7936V56.8168H84.6882V66.1104Z" fill="#377E3F"/>
</g>
<path d="M27.1976 41.2286L26.3626 36.9233H25.2343L24.3422 39.9435L23.4438 36.9233H22.3155L21.4805 41.2286H22.5247L23.0318 38.2591L23.8732 41.2286H24.8049L25.6463 38.2591L26.1534 41.2286H27.1976Z" fill="#377E3F"/>
<path d="M30.9288 39.0704C30.9288 39.7343 30.3283 40.3428 29.6628 40.3428C28.9988 40.3428 28.3967 39.7343 28.3967 39.0704C28.3967 38.4049 28.9988 37.8027 29.6628 37.8027C30.3283 37.8027 30.9288 38.4049 30.9288 39.0704ZM31.8796 39.0767C31.8796 37.8851 30.8528 36.8599 29.6628 36.8599C28.4727 36.8599 27.4475 37.8851 27.4475 39.0767C27.4475 40.2668 28.4727 41.292 29.6628 41.292C30.8528 41.292 31.8796 40.2668 31.8796 39.0767Z" fill="#377E3F"/>
<path d="M34.5536 39.9689C34.5536 40.2541 34.3127 40.4886 34.0291 40.4886H33.4269V39.4491H34.0291C34.3127 39.4491 34.5536 39.69 34.5536 39.9689ZM34.2557 38.1704C34.2557 38.4429 34.0291 38.6711 33.7565 38.6711H33.4269V37.6712H33.7565C34.0291 37.6712 34.2557 37.8915 34.2557 38.1704ZM35.5234 39.9942C35.5234 39.4111 35.1304 39.026 34.6487 38.9119C34.9719 38.7662 35.1621 38.4366 35.1621 37.9992C35.1621 37.4113 34.693 36.9233 33.9594 36.9233H32.4778V41.2286H34.2177C35.0416 41.2286 35.5234 40.7342 35.5234 39.9942Z" fill="#377E3F"/>
<path d="M36.9133 41.2286V36.9233H35.9641V41.2286H36.9133Z" fill="#377E3F"/>
<path d="M37.6726 41.2286H40.1667V40.3682H38.6218V36.9233H37.6726V41.2286Z" fill="#377E3F"/>
<path d="M43.2607 40.3682H41.7158V39.4998H43.1974V38.6394H41.7158V37.7837H43.2607V36.9233H40.7666V41.2286H43.2607V40.3682Z" fill="#377E3F"/>
<path d="M46.3608 39.5822H45.2722L45.8157 38.0499L46.3608 39.5822ZM47.9691 41.2286L46.2213 36.9233H45.418L43.6702 41.2286H44.6891L44.9996 40.3618H46.6397L46.9503 41.2286H47.9691Z" fill="#377E3F"/>
<path d="M49.3273 39.69H49.3337L50.3589 41.2286H51.5616L50.3272 39.6456C50.8723 39.5125 51.3097 39.0324 51.3097 38.3035C51.3097 37.4874 50.6885 36.9233 49.9929 36.9233H48.3782V41.2286H49.3273V39.69ZM49.8344 37.6712C50.1133 37.6712 50.4033 37.9105 50.4033 38.3035C50.4033 38.7155 50.1133 38.9436 49.8344 38.9436H49.3273V37.6712H49.8344Z" fill="#377E3F"/>
<path d="M55.2444 41.2286V36.9233H54.2953V39.6076L52.8137 36.9233H51.8645V41.2286H52.8137V38.5443L54.2953 41.2286H55.2444Z" fill="#377E3F"/>
<path d="M56.9516 41.2286V36.9233H56.0024V41.2286H56.9516Z" fill="#377E3F"/>
<path d="M61.0906 41.2286V36.9233H60.1414V39.6076L58.6599 36.9233H57.7107V41.2286H58.6599V38.5443L60.1414 41.2286H61.0906Z" fill="#377E3F"/>
<path d="M64.0006 37.7457C64.419 37.7457 64.85 37.9168 65.0576 38.3732H66.1034C65.8055 37.4811 64.9514 36.8599 64.0006 36.8599C62.7853 36.8599 61.7854 37.8598 61.7854 39.0767C61.7854 40.2921 62.7853 41.292 64.0006 41.292C65.2287 41.292 66.2111 40.2984 66.2111 39.0767V38.931H64.0894V39.6456H65.1843C64.9514 40.2984 64.419 40.4316 64.0006 40.4316C63.3177 40.4316 62.7472 39.8167 62.7472 39.0894C62.7472 38.3605 63.3177 37.7457 64.0006 37.7457Z" fill="#377E3F"/>
<path d="M35.9208 43.5963C35.886 43.5963 35.8416 43.571 35.7877 43.5203C35.7877 43.5425 35.7877 43.5646 35.7877 43.59C35.7877 43.7009 35.764 43.8356 35.718 43.9956C35.6752 44.1525 35.6102 44.2983 35.5215 44.433C35.4328 44.5629 35.3409 44.6295 35.249 44.6295C35.1729 44.6295 35.1063 44.5978 35.0525 44.5344C34.997 44.4758 34.9542 44.3981 34.9257 44.2999C34.8702 44.1145 34.8433 43.9132 34.8433 43.6977C34.7498 43.9481 34.6595 44.1525 34.5708 44.3126C34.4266 44.574 34.2871 44.7246 34.1524 44.7626C34.1192 44.7753 34.089 44.7816 34.0637 44.7816C34.0352 44.7816 34.0098 44.7784 33.9876 44.7753C33.9338 44.7531 33.8973 44.7135 33.8799 44.6548C33.8799 44.6501 33.8799 44.6437 33.8799 44.6358C33.8799 44.6311 33.8831 44.6247 33.8862 44.6168C33.8862 44.6073 33.891 44.6057 33.8989 44.6105C33.9037 44.6136 33.9084 44.6263 33.9116 44.6485C33.9243 44.6865 33.9496 44.7087 33.9876 44.7182C34.0098 44.7261 34.032 44.7309 34.0574 44.7309C34.0795 44.7309 34.1001 44.7261 34.1207 44.7182C34.2507 44.6754 34.3822 44.5376 34.5137 44.3062C34.6025 44.1335 34.6928 43.8911 34.7863 43.5773C34.7102 43.6455 34.6183 43.6835 34.5137 43.6914C34.501 43.6914 34.4947 43.6882 34.4947 43.6787C34.4947 43.6661 34.5026 43.6581 34.5201 43.6534C34.5787 43.6502 34.6405 43.6201 34.7039 43.5646C34.7672 43.506 34.8132 43.441 34.8433 43.3682C34.8465 43.3523 34.8702 43.3428 34.913 43.3428C34.959 43.3428 34.9796 43.3523 34.9764 43.3682C34.9717 43.3856 34.9653 43.4236 34.9574 43.4822C34.9526 43.5377 34.9511 43.5932 34.9511 43.647C34.9511 43.8926 34.9891 44.1208 35.0652 44.3316C35.1159 44.4837 35.1824 44.5598 35.268 44.5598C35.352 44.5598 35.428 44.4885 35.4962 44.3443C35.5675 44.1969 35.6166 44.0527 35.6419 43.9132C35.6705 43.7706 35.6863 43.6708 35.6863 43.6153C35.6863 43.5567 35.6831 43.5139 35.68 43.4886C35.6752 43.4601 35.6562 43.3983 35.6229 43.3048C35.6229 43.3016 35.6261 43.2953 35.6356 43.2858C35.6483 43.2731 35.6562 43.2667 35.661 43.2667C35.6863 43.2667 35.7085 43.2842 35.7307 43.3174C35.756 43.3476 35.7814 43.384 35.8067 43.4252C35.8448 43.5013 35.8796 43.5393 35.9145 43.5393L35.9398 43.5329C35.9525 43.5329 35.9604 43.5393 35.9652 43.552C35.9652 43.5646 35.9589 43.5757 35.9462 43.5837C35.9367 43.5932 35.9287 43.5963 35.9208 43.5963Z" fill="#377E3F"/>
<path d="M36.5064 44.2619C36.527 44.2112 36.5381 44.1731 36.5381 44.1478C36.5381 44.1193 36.5334 44.0971 36.5254 44.0844C36.5207 44.0685 36.5254 44.0527 36.5381 44.04C36.5508 44.0273 36.5651 44.0242 36.5825 44.0273C36.611 44.0369 36.6269 44.0685 36.6269 44.1224C36.6269 44.1779 36.592 44.2492 36.5254 44.3379C36.5286 44.376 36.5476 44.395 36.5825 44.395C36.6205 44.395 36.6776 44.3554 36.7536 44.2745C36.7917 44.2333 36.8138 44.2048 36.8233 44.1921C36.8313 44.1795 36.8376 44.1763 36.8424 44.1795C36.8503 44.1842 36.855 44.1858 36.855 44.1858C36.855 44.2032 36.8313 44.2397 36.7853 44.2936C36.7045 44.3918 36.6348 44.4393 36.5761 44.4393C36.5334 44.4393 36.5033 44.4235 36.4874 44.3886C36.4621 44.4187 36.4367 44.4457 36.4114 44.471C36.3559 44.5122 36.2941 44.5344 36.2275 44.5344C36.1895 44.5344 36.1578 44.5249 36.1325 44.5091C36.0849 44.4805 36.0627 44.4298 36.0627 44.3569C36.0627 44.2777 36.0897 44.1953 36.1451 44.1097C36.1784 44.059 36.2164 44.0147 36.2592 43.9766C36.3258 43.918 36.3892 43.8879 36.4494 43.8879C36.4652 43.8879 36.4811 43.8911 36.4938 43.8942C36.5349 43.9069 36.5571 43.9323 36.5571 43.9703C36.5571 44.0052 36.5476 44.021 36.5318 44.021C36.5223 44.0178 36.5191 44.0067 36.5191 43.9893C36.5191 43.964 36.5064 43.9513 36.4811 43.9513C36.4304 43.9513 36.367 43.9957 36.2909 44.0844C36.2149 44.1731 36.1705 44.2619 36.1578 44.3506C36.1531 44.368 36.1515 44.387 36.1515 44.4076C36.1515 44.4251 36.1578 44.4457 36.1705 44.471C36.1832 44.4916 36.2054 44.5027 36.2402 44.5027C36.2735 44.5027 36.3099 44.4885 36.348 44.4584C36.3892 44.4298 36.4256 44.3918 36.4557 44.3443L36.4494 44.3316C36.4446 44.3062 36.4462 44.2872 36.4557 44.2745C36.4684 44.2619 36.4842 44.2587 36.5064 44.2619Z" fill="#377E3F"/>
<path d="M38.1026 43.9322C38.1279 43.9322 38.1565 43.9449 38.1913 43.9703C38.2246 43.9956 38.2436 44.021 38.2484 44.0463C38.2515 44.0558 38.2547 44.0638 38.2547 44.0717C38.2547 44.1351 38.223 44.2032 38.1596 44.2745C38.0994 44.3427 38.0329 44.4013 37.9568 44.452C37.838 44.5312 37.7223 44.5724 37.6082 44.5724C37.5607 44.5724 37.5226 44.5661 37.4941 44.5534C37.4719 44.5407 37.502 44.5344 37.5828 44.5344C37.6621 44.5344 37.7698 44.4869 37.9061 44.3886C38.036 44.2999 38.1153 44.1921 38.1406 44.0654C38.1438 44.0448 38.1438 44.0242 38.1406 44.002C38.1359 43.9814 38.1232 43.9703 38.1026 43.9703C38.0424 43.9703 37.9631 44.0146 37.8617 44.1034C37.8189 44.1414 37.7746 44.1905 37.7286 44.2492C37.6858 44.3094 37.6652 44.3569 37.6652 44.3949C37.6652 44.4045 37.6652 44.4124 37.6652 44.4203C37.6684 44.4251 37.6668 44.433 37.6589 44.4457C37.6415 44.4805 37.6161 44.4773 37.5828 44.4393C37.5733 44.4187 37.5702 44.3981 37.5702 44.3759C37.5702 44.3125 37.5781 44.246 37.5955 44.1731C37.5908 44.1779 37.5781 44.1953 37.5575 44.2238C37.5401 44.2539 37.5195 44.2809 37.4941 44.3062C37.4846 44.3236 37.4767 44.3236 37.4688 44.3062C37.4688 44.3062 37.4688 44.3046 37.4688 44.2999C37.4688 44.2919 37.4703 44.2856 37.4751 44.2809C37.5797 44.1462 37.6431 44.059 37.6652 44.021C37.6858 43.9497 37.7223 43.8594 37.773 43.7484C37.8269 43.6391 37.876 43.5504 37.9188 43.4822C38.0075 43.3428 38.0978 43.2731 38.1913 43.2731C38.2072 43.2731 38.2246 43.2762 38.242 43.2794L38.2801 43.2984C38.3213 43.3206 38.3434 43.3491 38.3434 43.3872C38.3434 43.422 38.3323 43.46 38.3117 43.5012C38.2737 43.5773 38.1945 43.6708 38.0772 43.7801C37.9584 43.8911 37.8443 43.9861 37.735 44.0654C37.7049 44.1129 37.6843 44.1763 37.6716 44.2555C37.7223 44.1794 37.7873 44.1081 37.8681 44.04C37.9473 43.9687 38.0265 43.9322 38.1026 43.9322ZM38.0392 43.7484C38.204 43.5836 38.2864 43.4616 38.2864 43.3808C38.2864 43.3475 38.2737 43.3301 38.2484 43.3301C38.2262 43.3301 38.1992 43.3428 38.166 43.3681C38.0265 43.4743 37.8887 43.6771 37.754 43.9766C37.8459 43.918 37.941 43.8419 38.0392 43.7484Z" fill="#377E3F"/>
<path d="M38.899 44.2619C38.9196 44.2112 38.9307 44.1731 38.9307 44.1478C38.9307 44.1193 38.9259 44.0971 38.918 44.0844C38.9133 44.0685 38.918 44.0527 38.9307 44.04C38.9434 44.0273 38.9576 44.0242 38.9751 44.0273C39.0036 44.0369 39.0194 44.0685 39.0194 44.1224C39.0194 44.1779 38.9846 44.2492 38.918 44.3379C38.9212 44.376 38.9402 44.395 38.9751 44.395C39.0131 44.395 39.0701 44.3554 39.1462 44.2745C39.1842 44.2333 39.2064 44.2048 39.2159 44.1921C39.2238 44.1795 39.2302 44.1763 39.2349 44.1795C39.2429 44.1842 39.2476 44.1858 39.2476 44.1858C39.2476 44.2032 39.2238 44.2397 39.1779 44.2936C39.0971 44.3918 39.0274 44.4393 38.9687 44.4393C38.9259 44.4393 38.8958 44.4235 38.88 44.3886C38.8546 44.4187 38.8293 44.4457 38.8039 44.471C38.7485 44.5122 38.6867 44.5344 38.6201 44.5344C38.5821 44.5344 38.5504 44.5249 38.525 44.5091C38.4775 44.4805 38.4553 44.4298 38.4553 44.3569C38.4553 44.2777 38.4823 44.1953 38.5377 44.1097C38.571 44.059 38.609 44.0147 38.6518 43.9766C38.7184 43.918 38.7817 43.8879 38.842 43.8879C38.8578 43.8879 38.8737 43.8911 38.8863 43.8942C38.9275 43.9069 38.9497 43.9323 38.9497 43.9703C38.9497 44.0052 38.9402 44.021 38.9244 44.021C38.9149 44.0178 38.9117 44.0067 38.9117 43.9893C38.9117 43.964 38.899 43.9513 38.8737 43.9513C38.8229 43.9513 38.7596 43.9957 38.6835 44.0844C38.6074 44.1731 38.5631 44.2619 38.5504 44.3506C38.5456 44.368 38.5441 44.387 38.5441 44.4076C38.5441 44.4251 38.5504 44.4457 38.5631 44.471C38.5758 44.4916 38.5979 44.5027 38.6328 44.5027C38.6661 44.5027 38.7025 44.4885 38.7405 44.4584C38.7817 44.4298 38.8182 44.3918 38.8483 44.3443L38.842 44.3316C38.8372 44.3062 38.8388 44.2872 38.8483 44.2745C38.861 44.2619 38.8768 44.2587 38.899 44.2619Z" fill="#377E3F"/>
<path d="M40.2993 44.1985C40.2772 44.2365 40.2391 44.2856 40.1852 44.3443C40.1345 44.4045 40.087 44.4488 40.0458 44.4774C39.9903 44.5154 39.9285 44.5344 39.862 44.5344C39.8525 44.5344 39.8382 44.5281 39.8176 44.5154C39.7954 44.5059 39.7812 44.4916 39.7733 44.471C39.7685 44.4504 39.7669 44.4298 39.7669 44.4076C39.7669 44.3363 39.7796 44.265 39.8049 44.1921C39.8002 44.1969 39.7812 44.227 39.7479 44.2809C39.713 44.3363 39.6718 44.3886 39.6211 44.4393C39.5736 44.49 39.5276 44.5154 39.4817 44.5154C39.4563 44.5154 39.4278 44.5091 39.3993 44.4964C39.3438 44.471 39.3169 44.4251 39.3169 44.3569C39.3169 44.2777 39.3438 44.1953 39.3993 44.1097C39.4532 44.021 39.4896 43.9751 39.507 43.9703C39.5276 43.9671 39.5467 43.964 39.5641 43.964C39.5799 43.964 39.599 43.9687 39.6211 43.9766C39.6417 43.9814 39.6401 43.9925 39.6148 44.0083C39.5166 44.0971 39.45 44.1953 39.412 44.2999C39.3945 44.3427 39.3866 44.3791 39.3866 44.4076C39.3866 44.433 39.393 44.4504 39.4056 44.4584C39.4215 44.4679 39.4373 44.471 39.45 44.471C39.4833 44.471 39.5276 44.4488 39.5831 44.4013C39.6417 44.3554 39.7225 44.2603 39.824 44.1161C39.8366 44.0955 39.8588 44.0559 39.8937 43.9957C39.9317 43.9323 39.9523 43.8974 39.9571 43.8879C39.9777 43.8879 40.003 43.8942 40.0331 43.9069C40.0616 43.9164 40.0727 43.9291 40.0648 43.9449C39.9967 44.0559 39.9507 44.1351 39.9254 44.1858C39.9 44.2365 39.881 44.2983 39.8683 44.3696C39.8683 44.3823 39.8683 44.3997 39.8683 44.4203C39.8683 44.4378 39.8747 44.452 39.8873 44.4647C39.9079 44.4869 39.9349 44.4885 39.9697 44.471C40.0078 44.4504 40.0585 44.4124 40.1219 44.3569C40.1852 44.2983 40.236 44.2413 40.274 44.1858C40.2772 44.1779 40.2835 44.1763 40.293 44.1795C40.3009 44.1842 40.3057 44.189 40.3057 44.1921C40.3057 44.1921 40.3025 44.1953 40.2993 44.1985Z" fill="#377E3F"/>
<path d="M40.9621 43.9005C40.9907 43.9005 41.0065 43.918 41.0065 43.9512C41.0065 43.9861 40.9891 44.0321 40.9558 44.0907C40.9257 44.1509 40.9051 44.1984 40.8924 44.2365C40.8623 44.2999 40.8481 44.3506 40.8481 44.3886C40.8481 44.4266 40.8544 44.452 40.8671 44.4647C40.8877 44.4868 40.9146 44.4884 40.9495 44.471C40.9875 44.4504 41.0382 44.4124 41.1016 44.3569C41.165 44.2983 41.2157 44.2412 41.2537 44.1858C41.2616 44.1778 41.268 44.1763 41.2727 44.1794C41.2806 44.1842 41.2854 44.1889 41.2854 44.1921C41.2854 44.1921 41.2854 44.1953 41.2854 44.1984C41.2632 44.2365 41.2252 44.2856 41.1713 44.3442C41.1159 44.4044 41.0636 44.4504 41.0129 44.4837C40.9653 44.5169 40.9178 44.5344 40.8671 44.5344C40.8195 44.5344 40.7863 44.5233 40.7657 44.5027C40.7482 44.4821 40.7403 44.4567 40.7403 44.4266C40.7403 44.3981 40.7419 44.3696 40.7466 44.3442C40.7546 44.3157 40.7657 44.2808 40.7783 44.2428C40.8037 44.1842 40.8243 44.1382 40.8417 44.1034C40.8623 44.0701 40.8734 44.0495 40.8734 44.04C40.8734 44.0273 40.8671 44.021 40.8544 44.021C40.8322 44.021 40.791 44.0495 40.7276 44.1034C40.6848 44.1414 40.6215 44.2175 40.5375 44.3315C40.4567 44.4425 40.4107 44.4995 40.398 44.509C40.3505 44.5296 40.322 44.5407 40.3093 44.5407C40.2966 44.5407 40.2903 44.5375 40.2903 44.5344C40.2903 44.5344 40.2935 44.5296 40.2966 44.5217C40.2966 44.5122 40.3061 44.4757 40.3283 44.4076C40.3537 44.3411 40.3806 44.2666 40.4107 44.1858C40.4392 44.1065 40.4567 44.0574 40.4614 44.04C40.4693 44.0241 40.4741 44.0083 40.4741 43.9956C40.4773 43.9829 40.4804 43.975 40.4804 43.9703C40.4836 43.9623 40.4899 43.9544 40.4994 43.9449C40.5074 43.9322 40.5153 43.9259 40.5248 43.9259C40.5375 43.9227 40.5533 43.9227 40.5755 43.9259C40.5961 43.9307 40.6072 43.9386 40.6072 43.9512C40.6072 43.9639 40.5977 43.9877 40.5818 44.021C40.5644 44.0511 40.52 44.1604 40.4487 44.3506C40.4994 44.2872 40.5628 44.2175 40.6389 44.1414C40.715 44.0622 40.7783 44.0004 40.829 43.9576C40.8829 43.9196 40.9273 43.9005 40.9621 43.9005Z" fill="#377E3F"/>
<path d="M41.4556 44.1161C41.519 44.0622 41.5824 44.0147 41.6457 43.9766C41.7123 43.9354 41.7662 43.9101 41.8042 43.9006C41.8454 43.8926 41.8834 43.8879 41.9183 43.8879C41.9563 43.8879 41.9912 43.9006 42.026 43.9259C42.2162 43.487 42.3953 43.2667 42.5648 43.2667C42.6234 43.2667 42.663 43.2842 42.6852 43.3174C42.6932 43.3349 42.6979 43.3491 42.6979 43.3618C42.6979 43.3967 42.6821 43.441 42.6535 43.4949C42.6234 43.5456 42.5775 43.6027 42.5141 43.6661C42.4539 43.7294 42.3651 43.8087 42.2479 43.9006C42.1338 43.9941 42.0704 44.0464 42.0577 44.059C42.015 44.1604 41.9817 44.2603 41.9563 44.3569C41.931 44.4504 41.9183 44.5186 41.9183 44.5661C41.9183 44.612 41.9262 44.6485 41.9436 44.6738C41.9516 44.6944 41.9642 44.7055 41.9817 44.7055C41.9975 44.7087 42.0102 44.7071 42.0197 44.6992C42.0324 44.6944 42.0403 44.6881 42.0451 44.6802C42.053 44.6754 42.0609 44.6707 42.0704 44.6675C42.0783 44.6628 42.0847 44.6612 42.0894 44.6612C42.0926 44.6643 42.0926 44.6738 42.0894 44.6865C42.0799 44.6992 42.0704 44.7119 42.0577 44.7246C42.0356 44.7372 42.0102 44.7436 41.9817 44.7436C41.9516 44.7436 41.9326 44.7436 41.9246 44.7436C41.8565 44.7309 41.8232 44.6818 41.8232 44.5978C41.8232 44.5122 41.8327 44.4377 41.8549 44.3696C41.8834 44.2729 41.912 44.1921 41.9373 44.1288C41.7171 44.387 41.5602 44.5154 41.4683 44.5154C41.4461 44.5154 41.4239 44.5059 41.3986 44.49C41.3732 44.4774 41.351 44.4615 41.3352 44.4393C41.3177 44.414 41.3098 44.3886 41.3098 44.3633C41.3098 44.3347 41.3162 44.3062 41.3288 44.2809C41.3542 44.2222 41.3954 44.1668 41.4556 44.1161ZM42.007 43.9576C41.9944 43.9497 41.9658 43.9449 41.9246 43.9449C41.8818 43.9449 41.8264 43.9624 41.7598 43.9956C41.6965 44.0305 41.6347 44.0717 41.576 44.1224C41.5285 44.17 41.4873 44.2222 41.4493 44.2809C41.4144 44.3363 41.3986 44.3759 41.3986 44.4013C41.3986 44.452 41.4112 44.4774 41.4366 44.4774C41.4651 44.4774 41.5095 44.4552 41.5697 44.4076C41.725 44.2809 41.8628 44.1541 41.9817 44.0273L42.007 43.9576ZM42.6155 43.4379C42.6314 43.4046 42.6409 43.3777 42.6409 43.3555C42.6409 43.3301 42.6298 43.3174 42.6092 43.3174C42.5917 43.3174 42.5664 43.3301 42.5331 43.3555C42.381 43.4696 42.2431 43.6645 42.1211 43.9386C42.2099 43.88 42.3018 43.8023 42.4 43.7041C42.5014 43.6074 42.5727 43.5187 42.6155 43.4379Z" fill="#377E3F"/>
<path d="M42.3794 44.5154C42.3572 44.5154 42.335 44.5059 42.3097 44.49C42.2843 44.4774 42.2621 44.4615 42.2463 44.4393C42.2289 44.414 42.2209 44.3886 42.2209 44.3633C42.2209 44.3348 42.2273 44.3062 42.24 44.2809C42.2653 44.2222 42.3065 44.1668 42.3667 44.1161C42.4301 44.0622 42.4935 44.0147 42.5569 43.9766C42.6234 43.9354 42.6773 43.9101 42.7153 43.9006C42.7565 43.8927 42.7946 43.8879 42.8294 43.8879C42.8675 43.8879 42.8991 43.899 42.9245 43.9196C42.9499 43.937 42.9625 43.9545 42.9625 43.9703C42.9625 43.9798 42.9625 43.9861 42.9625 43.9893C42.9625 43.9893 42.9578 43.9877 42.9499 43.983C42.9324 43.9576 42.8991 43.9449 42.8484 43.9449C42.7977 43.9449 42.7375 43.9624 42.671 43.9957C42.6076 44.0305 42.5458 44.0717 42.4872 44.1224C42.4396 44.17 42.3984 44.2222 42.3604 44.2809C42.3255 44.3363 42.3097 44.376 42.3097 44.4013C42.3097 44.452 42.3224 44.4774 42.3477 44.4774C42.3762 44.4774 42.4206 44.4552 42.4808 44.4076C42.5775 44.3237 42.6456 44.2619 42.6836 44.2238C42.8104 44.0891 42.877 44.021 42.8865 44.021C42.9023 44.021 42.9213 44.0273 42.9435 44.04C42.9689 44.0495 42.9768 44.059 42.9689 44.0717C42.9007 44.17 42.8611 44.2682 42.8484 44.3696C42.8437 44.3823 42.8421 44.3997 42.8421 44.4203C42.8421 44.4378 42.8484 44.452 42.8611 44.4647C42.8817 44.4869 42.9087 44.4885 42.9435 44.471C42.9815 44.4504 43.0323 44.4124 43.0956 44.3569C43.159 44.2983 43.2097 44.2413 43.2478 44.1858C43.2557 44.1779 43.262 44.1763 43.2668 44.1795C43.2747 44.1842 43.2794 44.1858 43.2794 44.1858C43.2794 44.208 43.2446 44.2539 43.178 44.3252C43.1147 44.3934 43.0655 44.4393 43.0323 44.4647C42.9641 44.5106 42.9023 44.5344 42.8484 44.5344C42.7977 44.5344 42.7629 44.5091 42.747 44.4584C42.7423 44.4425 42.7407 44.4235 42.7407 44.4013C42.7407 44.3427 42.7534 44.2777 42.7787 44.2048C42.774 44.2096 42.7486 44.2397 42.7027 44.2936C42.6551 44.3443 42.6028 44.395 42.5442 44.4457C42.484 44.4916 42.4301 44.5154 42.3794 44.5154Z" fill="#377E3F"/>
<path d="M43.6312 44.5407C43.5583 44.5407 43.5234 44.4979 43.5234 44.414C43.5234 44.33 43.5836 44.227 43.7072 44.1034C43.7151 44.0907 43.7215 44.0828 43.7262 44.078L43.7452 44.059C43.7611 44.0337 43.7706 44.0178 43.7706 44.0083L43.7643 43.9893C43.7595 43.9735 43.7357 43.9624 43.6945 43.9576C43.6565 43.9497 43.6248 43.9449 43.5995 43.9449C43.4759 44.1192 43.4046 44.2175 43.384 44.2428C43.3618 44.2682 43.3475 44.2793 43.3396 44.2745C43.3348 44.2714 43.3333 44.2666 43.3333 44.2618C43.3333 44.2539 43.3364 44.246 43.3459 44.2365C43.422 44.1446 43.4854 44.0463 43.5361 43.9449C43.5186 43.9418 43.506 43.9354 43.498 43.9259C43.4933 43.918 43.4933 43.9037 43.498 43.8815C43.506 43.8609 43.5266 43.834 43.5614 43.7991C43.5947 43.7611 43.6248 43.7358 43.6502 43.7231C43.6787 43.7104 43.6961 43.7025 43.7009 43.6977C43.7088 43.6946 43.7167 43.6914 43.7262 43.6914C43.7421 43.6914 43.7357 43.7167 43.7072 43.7675L43.6312 43.8942C43.6898 43.899 43.7421 43.9006 43.7896 43.9006H43.8593C43.8847 43.9006 43.9005 43.9053 43.91 43.9132C43.9227 43.918 43.9259 43.9291 43.9227 43.9449C43.91 43.9703 43.8847 44.0051 43.8467 44.0463C43.7658 44.1446 43.704 44.2476 43.6628 44.3569C43.6533 44.3823 43.6502 44.406 43.6502 44.4266C43.6502 44.4647 43.6644 44.4837 43.6945 44.4837C43.7025 44.4837 43.7199 44.4773 43.7452 44.4647C43.7738 44.4488 43.8213 44.4124 43.8847 44.3569C43.9481 44.2983 43.9988 44.2412 44.0368 44.1858C44.04 44.1779 44.0463 44.1763 44.0558 44.1794C44.0637 44.1842 44.0685 44.189 44.0685 44.1921C44.0685 44.1921 44.0653 44.1953 44.0622 44.1985C44.04 44.2365 44.0019 44.2856 43.9481 44.3442C43.8974 44.4045 43.8467 44.4504 43.7959 44.4837C43.7452 44.5217 43.6898 44.5407 43.6312 44.5407Z" fill="#377E3F"/>
<path d="M44.3424 43.9195C44.3757 43.9195 44.3963 43.9306 44.4058 43.9512C44.409 43.9639 44.4074 43.9766 44.3994 43.9893C44.3947 43.9988 44.3899 44.0067 44.3868 44.0146C44.3868 44.0241 44.3836 44.0305 44.3804 44.0336C44.3757 44.0463 44.3693 44.059 44.3614 44.0717C44.2806 44.2285 44.2378 44.3284 44.2346 44.3696C44.2346 44.3822 44.2346 44.3997 44.2346 44.4203C44.2346 44.4377 44.241 44.452 44.2537 44.4646C44.2695 44.4868 44.2949 44.4884 44.3297 44.471C44.3678 44.4504 44.4185 44.4124 44.4818 44.3569C44.5484 44.2983 44.6023 44.2412 44.6403 44.1858C44.6435 44.1778 44.6498 44.1763 44.6593 44.1794C44.6672 44.1842 44.672 44.1889 44.672 44.1921C44.672 44.1921 44.6688 44.1953 44.6657 44.1984C44.6435 44.2365 44.6054 44.2856 44.5516 44.3442C44.4628 44.4377 44.3884 44.4963 44.3297 44.5217C44.2949 44.5296 44.2679 44.5344 44.2473 44.5344C44.1919 44.5344 44.1538 44.509 44.1332 44.4583C44.1332 44.4504 44.1332 44.4393 44.1332 44.4266C44.1332 44.3759 44.1538 44.303 44.1966 44.2048C44.1919 44.2222 44.1649 44.2555 44.1142 44.3062C44.1047 44.3236 44.0968 44.3236 44.0889 44.3062C44.0889 44.3062 44.0889 44.3046 44.0889 44.2998C44.0889 44.2919 44.0905 44.2856 44.0952 44.2808C44.1618 44.1968 44.2156 44.1255 44.2537 44.0653C44.2489 44.0622 44.2505 44.0527 44.26 44.04C44.2854 43.9639 44.3075 43.9243 44.3297 43.9195C44.3329 43.9195 44.3376 43.9195 44.3424 43.9195ZM44.5072 43.6407L44.4882 43.7104C44.4882 43.7231 44.4787 43.7452 44.4628 43.7738C44.4454 43.7991 44.4327 43.8118 44.4248 43.8118C44.3646 43.8118 44.3361 43.7975 44.3361 43.7674C44.3361 43.7643 44.3646 43.7389 44.4248 43.6914L44.4565 43.666C44.4771 43.6454 44.4898 43.6343 44.4945 43.6343C44.5024 43.6343 44.5072 43.6375 44.5072 43.6407Z" fill="#377E3F"/>
<path d="M45.2243 43.8879C45.3004 43.8879 45.3384 43.9243 45.3384 43.9957C45.3384 44.0337 45.3273 44.0638 45.3067 44.0844C45.2719 44.1351 45.2148 44.1795 45.1356 44.2175C45.0595 44.2555 44.9962 44.2777 44.9455 44.2809C44.9233 44.2856 44.9138 44.2809 44.9138 44.2682C44.909 44.2603 44.909 44.2555 44.9138 44.2555C44.9217 44.2555 44.9264 44.2555 44.9264 44.2555C44.9597 44.2524 45.0025 44.2365 45.0532 44.2112C45.1419 44.1604 45.2085 44.1097 45.256 44.059C45.2719 44.0337 45.2814 44.0115 45.2814 43.9893C45.2814 43.964 45.2703 43.9513 45.2497 43.9513C45.2275 43.9513 45.2022 43.9576 45.1736 43.9703C45.1103 44.0052 45.0421 44.059 44.9708 44.1351C44.8979 44.208 44.852 44.2793 44.8314 44.3506C44.8219 44.3728 44.8187 44.3934 44.8187 44.414C44.8187 44.4362 44.8266 44.4568 44.844 44.4774C44.8646 44.498 44.8916 44.5091 44.9264 44.5091C44.9676 44.5091 45.0168 44.4964 45.0722 44.471C45.2275 44.4076 45.3479 44.3126 45.4335 44.1858C45.4414 44.1731 45.4478 44.1715 45.4525 44.1795C45.4604 44.1842 45.4652 44.189 45.4652 44.1921C45.4652 44.1969 45.462 44.2016 45.4589 44.2048C45.4161 44.273 45.3638 44.3348 45.3004 44.3886C45.1768 44.4932 45.0564 44.5471 44.9391 44.5471C44.8409 44.5471 44.7712 44.517 44.73 44.4584C44.7173 44.433 44.7109 44.4061 44.7109 44.376C44.7109 44.3427 44.7189 44.3031 44.7363 44.2555C44.7696 44.1763 44.844 44.0955 44.9581 44.0147C45.0722 43.9307 45.161 43.8879 45.2243 43.8879Z" fill="#377E3F"/>
<path d="M45.5636 44.509C45.5462 44.5296 45.5414 44.5471 45.5509 44.5597C45.5636 44.5724 45.5763 44.5788 45.589 44.5788C45.6016 44.5788 45.6143 44.5756 45.627 44.5724C45.6856 44.555 45.7427 44.5217 45.7981 44.471C45.8568 44.4171 45.8869 44.3617 45.8869 44.3062C45.8869 44.2729 45.852 44.2397 45.7855 44.2048C45.7506 44.1889 45.7316 44.1779 45.7284 44.1731C45.6935 44.1525 45.6714 44.1287 45.6587 44.1034C45.6413 44.1382 45.6111 44.1842 45.5699 44.2428C45.5573 44.2555 45.5462 44.2603 45.5383 44.2555C45.5287 44.2476 45.5287 44.2365 45.5383 44.2238C45.5921 44.1477 45.6302 44.0844 45.6523 44.0337C45.6603 43.9576 45.7157 43.891 45.8171 43.8308C45.9186 43.7674 46.0089 43.7358 46.0897 43.7358C46.1404 43.7358 46.1753 43.7468 46.1974 43.7674C46.2228 43.7849 46.2355 43.8023 46.2355 43.8182C46.2355 43.8356 46.2291 43.8562 46.2165 43.8815C46.2069 43.9037 46.1863 43.9243 46.1531 43.9449C46.1436 43.9544 46.1372 43.9544 46.1341 43.9449C46.1293 43.937 46.1341 43.9259 46.1467 43.9132C46.1626 43.8974 46.1737 43.8752 46.1784 43.8498C46.1816 43.8245 46.1721 43.8102 46.1467 43.8055C46.142 43.8055 46.1372 43.8055 46.1341 43.8055C46.0786 43.8055 46.0105 43.8277 45.9312 43.8689C45.8504 43.9069 45.787 43.9576 45.7411 44.021C45.7237 44.0432 45.7157 44.0653 45.7157 44.0907C45.7157 44.1161 45.7316 44.1382 45.7664 44.1541C45.7791 44.1636 45.8013 44.1779 45.8362 44.1985C45.8694 44.2159 45.8932 44.2286 45.9059 44.2365C45.9186 44.246 45.9328 44.2587 45.9502 44.2745C45.9708 44.2919 45.9835 44.3094 45.9883 44.3252C45.9914 44.3633 45.9724 44.4076 45.9312 44.4583C45.8631 44.5296 45.7664 44.5803 45.6397 44.6104C45.6096 44.6184 45.5795 44.6231 45.5509 44.6231C45.5208 44.6231 45.5018 44.6104 45.4939 44.5851C45.4891 44.5803 45.4875 44.5724 45.4875 44.5597C45.4875 44.5471 45.4971 44.528 45.5192 44.5027C45.5398 44.4821 45.5715 44.4631 45.6143 44.4456C45.6175 44.4456 45.6222 44.4488 45.627 44.452C45.6302 44.452 45.6302 44.4552 45.627 44.4583C45.627 44.4631 45.6207 44.4678 45.608 44.471C45.5953 44.4758 45.5795 44.4884 45.5636 44.509Z" fill="#377E3F"/>
<path d="M46.5206 44.471C46.5206 44.4995 46.4905 44.5502 46.4319 44.6231C46.3558 44.715 46.3083 44.7626 46.2925 44.7626C46.283 44.7626 46.2798 44.7578 46.2798 44.7499C46.2798 44.7451 46.2988 44.7198 46.3368 44.6738C46.3749 44.631 46.4002 44.5914 46.4129 44.5534C46.4256 44.5154 46.4272 44.4884 46.4192 44.471C46.3939 44.425 46.4097 44.4013 46.4699 44.4013C46.4826 44.4013 46.4921 44.4108 46.5016 44.4266C46.5143 44.4441 46.5206 44.4583 46.5206 44.471Z" fill="#377E3F"/>
<path d="M47.9646 43.9005C47.9931 43.9005 48.009 43.918 48.009 43.9512C48.009 43.9861 47.9915 44.0321 47.9582 44.0907C47.9281 44.1509 47.9075 44.1984 47.8949 44.2365C47.8648 44.2999 47.8505 44.3506 47.8505 44.3886C47.8505 44.4266 47.8568 44.452 47.8695 44.4647C47.8901 44.4868 47.917 44.4884 47.9519 44.471C47.9899 44.4504 48.0406 44.4124 48.104 44.3569C48.1674 44.2983 48.2181 44.2412 48.2562 44.1858C48.2641 44.1778 48.2704 44.1763 48.2752 44.1794C48.2831 44.1842 48.2878 44.1889 48.2878 44.1921C48.2878 44.1921 48.2878 44.1953 48.2878 44.1984C48.2657 44.2365 48.2276 44.2856 48.1738 44.3442C48.1183 44.4044 48.066 44.4504 48.0153 44.4837C47.9678 44.5169 47.9202 44.5344 47.8695 44.5344C47.822 44.5344 47.7887 44.5233 47.7681 44.5027C47.7507 44.4821 47.7427 44.4567 47.7427 44.4266C47.7427 44.3981 47.7443 44.3696 47.7491 44.3442C47.757 44.3157 47.7681 44.2808 47.7808 44.2428C47.8061 44.1842 47.8267 44.1382 47.8442 44.1034C47.8648 44.0701 47.8759 44.0495 47.8759 44.04C47.8759 44.0273 47.8695 44.021 47.8568 44.021C47.8347 44.021 47.7935 44.0495 47.7301 44.1034C47.6873 44.1414 47.6239 44.2175 47.5399 44.3315C47.4591 44.4425 47.4132 44.4995 47.4005 44.509C47.3529 44.5296 47.3244 44.5407 47.3117 44.5407C47.2991 44.5407 47.2927 44.5375 47.2927 44.5344C47.2927 44.5344 47.2959 44.5296 47.2991 44.5217C47.2991 44.5122 47.3086 44.4757 47.3308 44.4076C47.3561 44.3411 47.383 44.2666 47.4132 44.1858C47.4417 44.1065 47.4591 44.0574 47.4639 44.04C47.4718 44.0241 47.4765 44.0083 47.4765 43.9956C47.4797 43.9829 47.4829 43.975 47.4829 43.9703C47.486 43.9623 47.4924 43.9544 47.5019 43.9449C47.5098 43.9322 47.5177 43.9259 47.5272 43.9259C47.5399 43.9227 47.5558 43.9227 47.5779 43.9259C47.5985 43.9307 47.6096 43.9386 47.6096 43.9512C47.6096 43.9639 47.6001 43.9877 47.5843 44.021C47.5669 44.0511 47.5225 44.1604 47.4512 44.3506C47.5019 44.2872 47.5653 44.2175 47.6413 44.1414C47.7174 44.0622 47.7808 44.0004 47.8315 43.9576C47.8854 43.9196 47.9297 43.9005 47.9646 43.9005Z" fill="#377E3F"/>
<path d="M48.8001 44.2619C48.8207 44.2112 48.8318 44.1731 48.8318 44.1478C48.8318 44.1193 48.8271 44.0971 48.8191 44.0844C48.8144 44.0685 48.8191 44.0527 48.8318 44.04C48.8445 44.0273 48.8588 44.0242 48.8762 44.0273C48.9047 44.0369 48.9206 44.0685 48.9206 44.1224C48.9206 44.1779 48.8857 44.2492 48.8191 44.3379C48.8223 44.376 48.8413 44.395 48.8762 44.395C48.9142 44.395 48.9713 44.3554 49.0473 44.2745C49.0854 44.2333 49.1075 44.2048 49.117 44.1921C49.125 44.1795 49.1313 44.1763 49.1361 44.1795C49.144 44.1842 49.1487 44.1858 49.1487 44.1858C49.1487 44.2032 49.125 44.2397 49.079 44.2936C48.9982 44.3918 48.9285 44.4393 48.8698 44.4393C48.8271 44.4393 48.797 44.4235 48.7811 44.3886C48.7558 44.4187 48.7304 44.4457 48.7051 44.471C48.6496 44.5122 48.5878 44.5344 48.5212 44.5344C48.4832 44.5344 48.4515 44.5249 48.4262 44.5091C48.3786 44.4805 48.3564 44.4298 48.3564 44.3569C48.3564 44.2777 48.3834 44.1953 48.4388 44.1097C48.4721 44.059 48.5101 44.0147 48.5529 43.9766C48.6195 43.918 48.6829 43.8879 48.7431 43.8879C48.7589 43.8879 48.7748 43.8911 48.7875 43.8942C48.8287 43.9069 48.8508 43.9323 48.8508 43.9703C48.8508 44.0052 48.8413 44.021 48.8255 44.021C48.816 44.0178 48.8128 44.0067 48.8128 43.9893C48.8128 43.964 48.8001 43.9513 48.7748 43.9513C48.7241 43.9513 48.6607 43.9957 48.5846 44.0844C48.5086 44.1731 48.4642 44.2619 48.4515 44.3506C48.4468 44.368 48.4452 44.387 48.4452 44.4076C48.4452 44.4251 48.4515 44.4457 48.4642 44.471C48.4769 44.4916 48.4991 44.5027 48.5339 44.5027C48.5672 44.5027 48.6036 44.4885 48.6417 44.4584C48.6829 44.4298 48.7193 44.3918 48.7494 44.3443L48.7431 44.3316C48.7383 44.3062 48.7399 44.2872 48.7494 44.2745C48.7621 44.2619 48.7779 44.2587 48.8001 44.2619Z" fill="#377E3F"/>
<path d="M50.5358 43.4379C50.5516 43.4094 50.5611 43.3856 50.5611 43.3682C50.5611 43.3396 50.55 43.3238 50.5294 43.3238C50.5073 43.3238 50.4819 43.3349 50.4534 43.3555C50.3425 43.441 50.2379 43.5757 50.1365 43.7611C50.0509 43.9101 49.9907 44.0368 49.9526 44.1414C50.0446 44.078 50.1507 43.975 50.2696 43.8309C50.3868 43.6835 50.4756 43.552 50.5358 43.4379ZM49.921 44.2238C49.9035 44.2714 49.8924 44.3031 49.8893 44.3189C49.8893 44.3363 49.8893 44.3601 49.8893 44.3886C49.8893 44.414 49.8972 44.4377 49.9146 44.4583C49.9352 44.4964 49.9732 44.498 50.0287 44.4647C50.0699 44.4441 50.1238 44.4045 50.1872 44.3443C50.2505 44.2856 50.2981 44.2333 50.3329 44.1858C50.3361 44.1826 50.3409 44.1795 50.3456 44.1795C50.3583 44.1795 50.3615 44.189 50.3583 44.2048C50.3361 44.2428 50.2981 44.292 50.2442 44.3506C50.1888 44.4061 50.138 44.4504 50.0921 44.4837C50.0446 44.517 49.9986 44.5344 49.9526 44.5344C49.8465 44.5344 49.7942 44.4837 49.7942 44.3823C49.7942 44.3791 49.7942 44.3744 49.7942 44.3696C49.8021 44.2729 49.8512 44.1272 49.94 43.9323C50.0319 43.7389 50.1174 43.5932 50.1935 43.4949L50.2569 43.4125C50.2727 43.3967 50.2965 43.3729 50.3266 43.3428C50.3805 43.2921 50.4359 43.2667 50.4914 43.2667C50.55 43.2667 50.5896 43.2842 50.6118 43.3174C50.6198 43.3301 50.6245 43.3491 50.6245 43.3745C50.6245 43.3967 50.6134 43.43 50.5928 43.4759C50.4486 43.7215 50.2252 43.9703 49.921 44.2238Z" fill="#377E3F"/>
<path d="M50.6381 43.9195C50.6713 43.9195 50.6919 43.9306 50.7014 43.9512C50.7046 43.9639 50.703 43.9766 50.6951 43.9893C50.6903 43.9988 50.6856 44.0067 50.6824 44.0146C50.6824 44.0241 50.6793 44.0305 50.6761 44.0336C50.6713 44.0463 50.665 44.059 50.6571 44.0717C50.5763 44.2285 50.5335 44.3284 50.5303 44.3696C50.5303 44.3822 50.5303 44.3997 50.5303 44.4203C50.5303 44.4377 50.5366 44.452 50.5493 44.4646C50.5652 44.4868 50.5905 44.4884 50.6254 44.471C50.6634 44.4504 50.7141 44.4124 50.7775 44.3569C50.8441 44.2983 50.8979 44.2412 50.936 44.1858C50.9391 44.1778 50.9455 44.1763 50.955 44.1794C50.9629 44.1842 50.9676 44.1889 50.9676 44.1921C50.9676 44.1921 50.9645 44.1953 50.9613 44.1984C50.9391 44.2365 50.9011 44.2856 50.8472 44.3442C50.7585 44.4377 50.684 44.4963 50.6254 44.5217C50.5905 44.5296 50.5636 44.5344 50.543 44.5344C50.4875 44.5344 50.4495 44.509 50.4289 44.4583C50.4289 44.4504 50.4289 44.4393 50.4289 44.4266C50.4289 44.3759 50.4495 44.303 50.4923 44.2048C50.4875 44.2222 50.4606 44.2555 50.4099 44.3062C50.4004 44.3236 50.3924 44.3236 50.3845 44.3062C50.3845 44.3062 50.3845 44.3046 50.3845 44.2998C50.3845 44.2919 50.3861 44.2856 50.3909 44.2808C50.4574 44.1968 50.5113 44.1255 50.5493 44.0653C50.5446 44.0622 50.5461 44.0527 50.5557 44.04C50.581 43.9639 50.6032 43.9243 50.6254 43.9195C50.6285 43.9195 50.6333 43.9195 50.6381 43.9195ZM50.8029 43.6407L50.7838 43.7104C50.7838 43.7231 50.7743 43.7452 50.7585 43.7738C50.7411 43.7991 50.7284 43.8118 50.7205 43.8118C50.6602 43.8118 50.6317 43.7975 50.6317 43.7674C50.6317 43.7643 50.6602 43.7389 50.7205 43.6914L50.7521 43.666C50.7727 43.6454 50.7854 43.6343 50.7902 43.6343C50.7981 43.6343 50.8029 43.6375 50.8029 43.6407Z" fill="#377E3F"/>
<path d="M51.3174 43.9512C51.3174 43.9639 51.3079 43.9877 51.2921 44.021C51.2794 44.0511 51.2366 44.1604 51.1653 44.3506C51.2112 44.2872 51.273 44.2175 51.3491 44.1414C51.5012 43.9814 51.6058 43.9005 51.666 43.9005C51.6787 43.9005 51.6914 43.9053 51.704 43.9132C51.7167 43.918 51.7231 43.9322 51.7231 43.9576C51.7231 43.9798 51.7136 44.0051 51.6977 44.0336C51.6803 44.0638 51.6613 44.1018 51.6407 44.1477C51.6232 44.1905 51.6121 44.2159 51.609 44.2238C51.7231 44.1192 51.8086 44.0558 51.8688 44.0336C51.9275 44.013 51.9655 44.002 51.9829 44.002C52.0035 44.002 52.0146 44.0083 52.0146 44.021C52.0146 44.0305 52.0035 44.0511 51.9829 44.0844C51.9607 44.1145 51.9386 44.1604 51.9132 44.2238C51.891 44.284 51.8783 44.3252 51.8752 44.3506C51.8704 44.3759 51.8688 44.3997 51.8688 44.4203C51.8688 44.4377 51.8752 44.452 51.8879 44.4647C51.9085 44.4868 51.9354 44.4884 51.9703 44.471C52.0083 44.4504 52.059 44.4124 52.1224 44.3569C52.1858 44.2983 52.2365 44.2412 52.2745 44.1858C52.2824 44.1778 52.2888 44.1763 52.2935 44.1794C52.3014 44.1842 52.3062 44.1889 52.3062 44.1921C52.3062 44.1921 52.3062 44.1953 52.3062 44.1984C52.284 44.2365 52.246 44.2856 52.1921 44.3442C52.1034 44.4377 52.0289 44.4963 51.9703 44.5217C51.9069 44.5423 51.8593 44.5439 51.8308 44.528C51.8007 44.5106 51.7817 44.4916 51.7738 44.471C51.769 44.4504 51.7674 44.4298 51.7674 44.4076C51.7674 44.3442 51.7801 44.2808 51.8055 44.2175C51.8308 44.1509 51.8498 44.1065 51.8625 44.0844C51.8118 44.1065 51.7674 44.1335 51.7294 44.1668C51.6739 44.2175 51.6296 44.2602 51.5963 44.2935L51.5519 44.3442C51.5392 44.3743 51.5171 44.3918 51.4885 44.3949C51.4584 44.3997 51.4442 44.3886 51.4442 44.3632C51.4473 44.3379 51.4727 44.2808 51.5202 44.1921C51.5662 44.1002 51.59 44.0495 51.59 44.04C51.59 44.0273 51.5852 44.021 51.5773 44.021C51.5519 44.021 51.5076 44.0495 51.4442 44.1034C51.4014 44.1414 51.338 44.2175 51.254 44.3315C51.1685 44.4425 51.1209 44.4995 51.1082 44.509C51.0607 44.5296 51.0322 44.5407 51.0195 44.5407C51.0068 44.5407 51.0005 44.5375 51.0005 44.5344C51.0005 44.5344 51.0021 44.5296 51.0068 44.5217C51.01 44.5122 51.0528 44.3933 51.1336 44.1604C51.1035 44.208 51.0765 44.2428 51.0512 44.2682C51.0385 44.2808 51.0322 44.2793 51.0322 44.2618C51.0322 44.246 51.0353 44.2301 51.0449 44.2175C51.1082 44.1335 51.1542 44.0638 51.1843 44.0083C51.1922 43.9623 51.2097 43.9354 51.235 43.9259C51.2477 43.918 51.2635 43.918 51.2857 43.9259C51.3063 43.9307 51.3174 43.9386 51.3174 43.9512Z" fill="#377E3F"/>
<path d="M52.5843 43.9195C52.6176 43.9195 52.6382 43.9306 52.6477 43.9512C52.6509 43.9639 52.6493 43.9766 52.6414 43.9893C52.6366 43.9988 52.6319 44.0067 52.6287 44.0146C52.6287 44.0241 52.6255 44.0305 52.6224 44.0336C52.6176 44.0463 52.6113 44.059 52.6034 44.0717C52.5225 44.2285 52.4798 44.3284 52.4766 44.3696C52.4766 44.3822 52.4766 44.3997 52.4766 44.4203C52.4766 44.4377 52.4829 44.452 52.4956 44.4646C52.5115 44.4868 52.5368 44.4884 52.5717 44.471C52.6097 44.4504 52.6604 44.4124 52.7238 44.3569C52.7903 44.2983 52.8442 44.2412 52.8822 44.1858C52.8854 44.1778 52.8918 44.1763 52.9013 44.1794C52.9092 44.1842 52.9139 44.1889 52.9139 44.1921C52.9139 44.1921 52.9108 44.1953 52.9076 44.1984C52.8854 44.2365 52.8474 44.2856 52.7935 44.3442C52.7048 44.4377 52.6303 44.4963 52.5717 44.5217C52.5368 44.5296 52.5099 44.5344 52.4893 44.5344C52.4338 44.5344 52.3958 44.509 52.3752 44.4583C52.3752 44.4504 52.3752 44.4393 52.3752 44.4266C52.3752 44.3759 52.3958 44.303 52.4386 44.2048C52.4338 44.2222 52.4069 44.2555 52.3562 44.3062C52.3467 44.3236 52.3387 44.3236 52.3308 44.3062C52.3308 44.3062 52.3308 44.3046 52.3308 44.2998C52.3308 44.2919 52.3324 44.2856 52.3371 44.2808C52.4037 44.1968 52.4576 44.1255 52.4956 44.0653C52.4909 44.0622 52.4924 44.0527 52.5019 44.04C52.5273 43.9639 52.5495 43.9243 52.5717 43.9195C52.5748 43.9195 52.5796 43.9195 52.5843 43.9195ZM52.7491 43.6407L52.7301 43.7104C52.7301 43.7231 52.7206 43.7452 52.7048 43.7738C52.6873 43.7991 52.6747 43.8118 52.6667 43.8118C52.6065 43.8118 52.578 43.7975 52.578 43.7674C52.578 43.7643 52.6065 43.7389 52.6667 43.6914L52.6984 43.666C52.719 43.6454 52.7317 43.6343 52.7365 43.6343C52.7444 43.6343 52.7491 43.6375 52.7491 43.6407Z" fill="#377E3F"/>
<path d="M53.321 43.9133C53.4255 43.9006 53.4889 43.8942 53.5111 43.8942C53.5365 43.8942 53.5491 43.899 53.5491 43.9069C53.5491 43.9164 53.5317 43.9243 53.4984 43.9323C53.4683 43.9418 53.3907 43.9545 53.2639 43.9703C53.2544 43.9798 53.2465 43.9925 53.2386 44.0083C53.2164 44.0432 53.2069 44.0638 53.2069 44.0717C53.1261 44.2286 53.0833 44.3284 53.0801 44.3696C53.0801 44.3823 53.0801 44.3997 53.0801 44.4203C53.0801 44.4378 53.0864 44.452 53.0991 44.4647C53.115 44.4869 53.1403 44.4885 53.1752 44.471C53.2132 44.4504 53.2639 44.4124 53.3273 44.3569C53.3939 44.2983 53.4477 44.2413 53.4858 44.1858C53.4889 44.1779 53.4953 44.1763 53.5048 44.1795C53.5254 44.189 53.4889 44.2428 53.397 44.3443C53.3083 44.4378 53.2338 44.4964 53.1752 44.5217C53.1403 44.5297 53.1134 44.5344 53.0928 44.5344C53.0373 44.5344 52.9993 44.5091 52.9787 44.4584C52.9787 44.4504 52.9787 44.4393 52.9787 44.4267C52.9787 44.376 52.9993 44.3031 53.0421 44.2048C53.0373 44.2222 53.0104 44.2555 52.9597 44.3062C52.9502 44.3237 52.9422 44.3237 52.9343 44.3062C52.9343 44.3062 52.9343 44.3046 52.9343 44.2999C52.9343 44.292 52.9359 44.2856 52.9407 44.2809C53.0072 44.1969 53.0611 44.1256 53.0991 44.0654C53.0991 44.0654 53.1134 44.0369 53.1435 43.9766C53.1308 43.9814 53.115 43.983 53.0991 43.983C53.0864 43.983 53.0754 43.9798 53.0674 43.9703C53.0627 43.9624 53.0627 43.9513 53.0674 43.9386C53.0754 43.918 53.1118 43.9053 53.1752 43.9006C53.1784 43.8974 53.1831 43.8942 53.1879 43.8942L53.2893 43.7041C53.2924 43.6962 53.2988 43.6851 53.3083 43.6724C53.3162 43.6597 53.321 43.6518 53.321 43.647C53.3241 43.6391 53.3289 43.6328 53.3336 43.628C53.3368 43.6201 53.34 43.6138 53.34 43.609C53.3431 43.6058 53.3479 43.6027 53.3527 43.6027C53.3558 43.5948 53.3717 43.59 53.397 43.59C53.4255 43.59 53.4446 43.5963 53.4541 43.609C53.4572 43.6185 53.4604 43.628 53.4604 43.6407C53.4604 43.6534 53.4557 43.6692 53.4477 43.6851C53.4382 43.6978 53.4287 43.7088 53.416 43.7168C53.4065 43.7263 53.4002 43.7342 53.397 43.7421L53.2956 43.9133H53.321Z" fill="#377E3F"/>
<path d="M53.6137 44.509C53.5962 44.5296 53.5915 44.5471 53.601 44.5597C53.6137 44.5724 53.6263 44.5788 53.639 44.5788C53.6517 44.5788 53.6644 44.5756 53.677 44.5724C53.7357 44.555 53.7927 44.5217 53.8482 44.471C53.9068 44.4171 53.9369 44.3617 53.9369 44.3062C53.9369 44.2729 53.9021 44.2397 53.8355 44.2048C53.8006 44.1889 53.7816 44.1779 53.7785 44.1731C53.7436 44.1525 53.7214 44.1287 53.7087 44.1034C53.6913 44.1382 53.6612 44.1842 53.62 44.2428C53.6073 44.2555 53.5962 44.2603 53.5883 44.2555C53.5788 44.2476 53.5788 44.2365 53.5883 44.2238C53.6422 44.1477 53.6802 44.0844 53.7024 44.0337C53.7103 43.9576 53.7658 43.891 53.8672 43.8308C53.9686 43.7674 54.0589 43.7358 54.1397 43.7358C54.1904 43.7358 54.2253 43.7468 54.2475 43.7674C54.2728 43.7849 54.2855 43.8023 54.2855 43.8182C54.2855 43.8356 54.2792 43.8562 54.2665 43.8815C54.257 43.9037 54.2364 43.9243 54.2031 43.9449C54.1936 43.9544 54.1873 43.9544 54.1841 43.9449C54.1794 43.937 54.1841 43.9259 54.1968 43.9132C54.2126 43.8974 54.2237 43.8752 54.2285 43.8498C54.2316 43.8245 54.2221 43.8102 54.1968 43.8055C54.192 43.8055 54.1873 43.8055 54.1841 43.8055C54.1286 43.8055 54.0605 43.8277 53.9813 43.8689C53.9005 43.9069 53.8371 43.9576 53.7911 44.021C53.7737 44.0432 53.7658 44.0653 53.7658 44.0907C53.7658 44.1161 53.7816 44.1382 53.8165 44.1541C53.8292 44.1636 53.8513 44.1779 53.8862 44.1985C53.9195 44.2159 53.9433 44.2286 53.9559 44.2365C53.9686 44.246 53.9829 44.2587 54.0003 44.2745C54.0209 44.2919 54.0336 44.3094 54.0383 44.3252C54.0415 44.3633 54.0225 44.4076 53.9813 44.4583C53.9131 44.5296 53.8165 44.5803 53.6897 44.6104C53.6596 44.6184 53.6295 44.6231 53.601 44.6231C53.5709 44.6231 53.5519 44.6104 53.5439 44.5851C53.5392 44.5803 53.5376 44.5724 53.5376 44.5597C53.5376 44.5471 53.5471 44.528 53.5693 44.5027C53.5899 44.4821 53.6216 44.4631 53.6644 44.4456C53.6675 44.4456 53.6723 44.4488 53.677 44.452C53.6802 44.452 53.6802 44.4552 53.677 44.4583C53.677 44.4631 53.6707 44.4678 53.658 44.471C53.6453 44.4758 53.6295 44.4884 53.6137 44.509Z" fill="#377E3F"/>
<path d="M54.5825 44.4012V44.4327C54.5825 44.4422 54.5731 44.4579 54.5573 44.4831C54.54 44.5036 54.5274 44.5146 54.5195 44.5146C54.477 44.5146 54.4565 44.5036 54.4565 44.4831C54.4565 44.4705 54.4691 44.4548 54.4943 44.4327C54.5321 44.4044 54.5542 44.3886 54.5636 44.3886C54.5762 44.3886 54.5825 44.3934 54.5825 44.4012Z" fill="#377E3F"/>
</svg>
